<svg width="267" height="35" viewBox="0 0 267 35" fill="none" xmlns="http://www.w3.org/2000/svg">
<path d="M24.48 7.62939e-05C25.28 7.62939e-05 26.72 0.160076 28.8 0.480076V6.96008H26.88C26.4 6.96008 25.968 7.12008 25.584 7.44008C25.2 7.72808 24.912 8.04808 24.72 8.40008L20.16 17.0401L29.52 34.0801H20.4L12.96 20.4001H8.64V34.0801H-4.76837e-06V0.480076H8.64V13.6801H12.96L17.76 4.56008C18.464 3.21608 19.328 2.12808 20.352 1.29608C21.408 0.432076 22.784 7.62939e-05 24.48 7.62939e-05ZM56.8706 9.60008C56.8706 7.68008 55.9106 6.72008 53.9906 6.72008H45.8306C43.9106 6.72008 42.9506 7.68008 42.9506 9.60008V24.9601C42.9506 26.8801 43.9106 27.8401 45.8306 27.8401H53.9906C55.9106 27.8401 56.8706 26.8801 56.8706 24.9601V9.60008ZM65.5106 24.9601C65.5106 28.3201 64.7426 30.7681 63.2066 32.3041C61.7026 33.8081 59.2706 34.5601 55.9106 34.5601H43.9106C40.5506 34.5601 38.1026 33.8081 36.5666 32.3041C35.0626 30.7681 34.3106 28.3201 34.3106 24.9601V9.60008C34.3106 6.24008 35.0626 3.80808 36.5666 2.30408C38.1026 0.768076 40.5506 7.62939e-05 43.9106 7.62939e-05H55.9106C59.2706 7.62939e-05 61.7026 0.768076 63.2066 2.30408C64.7426 3.80808 65.5106 6.24008 65.5106 9.60008V24.9601ZM102.013 15.3601L95.2931 27.3601H88.5731L81.8531 15.3601V34.0801H73.2131V0.480076H82.3331L91.9331 18.2401L101.533 0.480076H110.653V34.0801H102.013V15.3601ZM148.592 34.0801H139.952V13.4401L128.432 34.0801H119.312V0.480076H127.952V21.1201L139.472 0.480076H148.592V34.0801ZM181.734 7.62939e-05C182.534 7.62939e-05 183.974 0.160076 186.054 0.480076V6.96008H184.134C183.654 6.96008 183.222 7.12008 182.838 7.44008C182.454 7.72808 182.166 8.04808 181.974 8.40008L177.414 17.0401L186.774 34.0801H177.654L170.214 20.4001H165.894V34.0801H157.254V0.480076H165.894V13.6801H170.214L175.014 4.56008C175.718 3.21608 176.582 2.12808 177.606 1.29608C178.662 0.432076 180.038 7.62939e-05 181.734 7.62939e-05ZM218.445 33.6001C211.309 34.2401 205.389 34.5601 200.685 34.5601C197.549 34.5601 195.245 33.8241 193.773 32.3521C192.301 30.8801 191.565 28.5761 191.565 25.4401V10.0801C191.565 6.72008 192.317 4.28808 193.821 2.78408C195.357 1.24808 197.805 0.480076 201.165 0.480076H218.445V7.20008H203.085C201.165 7.20008 200.205 8.16008 200.205 10.0801V25.4401C200.205 26.1761 200.413 26.7681 200.829 27.2161C201.277 27.6321 201.837 27.8401 202.509 27.8401C203.181 27.8401 203.917 27.8401 204.717 27.8401C205.517 27.8081 206.349 27.7761 207.213 27.7441C208.077 27.7121 208.941 27.6801 209.805 27.6481C210.701 27.6161 211.837 27.5521 213.213 27.4561C214.621 27.3601 216.365 27.2481 218.445 27.1201V33.6001ZM233.811 12.0001H244.851C248.211 12.0001 250.643 12.7681 252.147 14.3041C253.683 15.8081 254.451 18.2401 254.451 21.6001V24.4801C254.451 27.8401 253.683 30.2881 252.147 31.8241C250.643 33.3281 248.211 34.0801 244.851 34.0801H225.171V0.480076H233.811V12.0001ZM266.931 34.0801H258.291V0.480076H266.931V34.0801ZM245.811 21.6001C245.811 19.6801 244.851 18.7201 242.931 18.7201H233.811V27.3601H242.931C244.851 27.3601 245.811 26.4001 245.811 24.4801V21.6001Z" fill="white"/>
</svg>
