<svg width="435" height="38" viewBox="0 0 435 38" fill="none" xmlns="http://www.w3.org/2000/svg">
<path d="M38.112 0.768064V36.7681H28.176V5.08807L32.64 9.60006H5.47202L9.93602 5.08807V36.7681H1.46627e-05V0.768064H38.112ZM65.5485 37.5361C61.2925 37.5361 57.5485 36.7521 54.3165 35.1841C51.1165 33.6161 48.6205 31.4241 46.8285 28.6081C45.0685 25.7921 44.1885 22.5121 44.1885 18.7681C44.1885 15.0241 45.0685 11.7441 46.8285 8.92806C48.6205 6.11206 51.1165 3.92006 54.3165 2.35207C57.5485 0.784065 61.2925 6.48499e-05 65.5485 6.48499e-05C69.8365 6.48499e-05 73.5805 0.784065 76.7805 2.35207C79.9805 3.92006 82.4765 6.11206 84.2685 8.92806C86.0605 11.7441 86.9565 15.0241 86.9565 18.7681C86.9565 22.5121 86.0605 25.7921 84.2685 28.6081C82.4765 31.4241 79.9805 33.6161 76.7805 35.1841C73.5805 36.7521 69.8365 37.5361 65.5485 37.5361ZM65.5485 28.6561C67.8845 28.6561 69.9005 28.2561 71.5965 27.4561C73.2925 26.6561 74.5885 25.5201 75.4845 24.0481C76.4125 22.5761 76.8765 20.8161 76.8765 18.7681C76.8765 16.7201 76.4125 14.9601 75.4845 13.4881C74.5885 12.0161 73.2925 10.8801 71.5965 10.0801C69.9005 9.28006 67.8845 8.88006 65.5485 8.88006C63.2445 8.88006 61.2445 9.28006 59.5485 10.0801C57.8525 10.8801 56.5405 12.0161 55.6125 13.4881C54.6845 14.9601 54.2205 16.7201 54.2205 18.7681C54.2205 20.8161 54.6845 22.5761 55.6125 24.0481C56.5405 25.5201 57.8525 26.6561 59.5485 27.4561C61.2445 28.2561 63.2445 28.6561 65.5485 28.6561ZM131.157 0.768064V36.7681H121.221V5.08807L125.685 9.60006H98.517L102.981 5.08807V36.7681H93.045V0.768064H131.157ZM147.314 36.7681L153.794 25.4881H153.938L168.002 0.768064H178.802L158.114 36.7681H147.314ZM153.65 31.9201L135.65 0.768064H146.642L160.706 25.2481L153.65 31.9201ZM184.262 0.768064H219.59V36.7681H209.606V5.08807L214.118 9.60006H189.83L194.006 6.28806C194.262 8.40007 194.438 10.4321 194.534 12.3841C194.63 14.3041 194.678 16.1281 194.678 17.8561C194.678 22.4641 194.262 26.2241 193.43 29.1361C192.598 32.0161 191.286 34.1281 189.494 35.4721C187.702 36.8161 185.382 37.4881 182.534 37.4881C181.286 37.4881 180.054 37.3601 178.838 37.1041C177.654 36.8481 176.566 36.4641 175.574 35.9521V27.6961C176.982 28.2401 178.278 28.5121 179.462 28.5121C181.542 28.5121 183.03 27.5681 183.926 25.6801C184.854 23.7921 185.318 20.7041 185.318 16.4161C185.318 14.3361 185.222 12.0001 185.03 9.40806C184.87 6.81606 184.614 3.93606 184.262 0.768064ZM254.87 16.7521V23.8081H239.846L239.798 23.6161C237.046 23.6161 234.63 23.1521 232.55 22.2241C230.502 21.2961 228.902 19.9841 227.75 18.2881C226.63 16.5921 226.07 14.6081 226.07 12.3361C226.07 10.0001 226.63 7.98407 227.75 6.28806C228.902 4.56007 230.502 3.21607 232.55 2.25606C234.63 1.26406 237.046 0.768064 239.798 0.768064H261.782V36.7681H251.798V3.40806L256.262 7.87206H241.238C239.606 7.87206 238.326 8.27206 237.398 9.07207C236.502 9.84007 236.054 10.9281 236.054 12.3361C236.054 13.7121 236.502 14.8001 237.398 15.6001C238.326 16.3681 239.606 16.7521 241.238 16.7521H254.87ZM248.918 19.9201L236.63 36.7681H225.11L237.782 19.9201H248.918ZM289.64 0.768064C292.648 0.768064 295.24 1.28006 297.416 2.30406C299.624 3.32806 301.304 4.78406 302.456 6.67206C303.608 8.52807 304.184 10.7041 304.184 13.2001C304.184 15.6641 303.608 17.8401 302.456 19.7281C301.304 21.5841 299.624 23.0241 297.416 24.0481C295.24 25.0721 292.648 25.5841 289.64 25.5841H274.04V17.6161H289.016C290.616 17.6161 291.864 17.2321 292.76 16.4641C293.656 15.6641 294.104 14.5761 294.104 13.2001C294.104 11.7921 293.656 10.7041 292.76 9.93607C291.864 9.13606 290.616 8.73606 289.016 8.73606H274.904L279.368 4.12807V36.7681H269.432V0.768064H289.64ZM309.486 0.768064H319.422V36.7681H309.486V0.768064ZM337.806 0.768064H347.79V36.7681H337.806V0.768064ZM315.054 14.0641H341.934V22.8961H315.054V14.0641ZM375.269 37.5361C371.013 37.5361 367.269 36.7521 364.037 35.1841C360.837 33.6161 358.341 31.4241 356.549 28.6081C354.789 25.7921 353.909 22.5121 353.909 18.7681C353.909 15.0241 354.789 11.7441 356.549 8.92806C358.341 6.11206 360.837 3.92006 364.037 2.35207C367.269 0.784065 371.013 6.48499e-05 375.269 6.48499e-05C379.557 6.48499e-05 383.301 0.784065 386.501 2.35207C389.701 3.92006 392.197 6.11206 393.989 8.92806C395.781 11.7441 396.677 15.0241 396.677 18.7681C396.677 22.5121 395.781 25.7921 393.989 28.6081C392.197 31.4241 389.701 33.6161 386.501 35.1841C383.301 36.7521 379.557 37.5361 375.269 37.5361ZM375.269 28.6561C377.605 28.6561 379.621 28.2561 381.317 27.4561C383.013 26.6561 384.309 25.5201 385.205 24.0481C386.133 22.5761 386.597 20.8161 386.597 18.7681C386.597 16.7201 386.133 14.9601 385.205 13.4881C384.309 12.0161 383.013 10.8801 381.317 10.0801C379.621 9.28006 377.605 8.88006 375.269 8.88006C372.965 8.88006 370.965 9.28006 369.269 10.0801C367.573 10.8801 366.261 12.0161 365.333 13.4881C364.405 14.9601 363.941 16.7201 363.941 18.7681C363.941 20.8161 364.405 22.5761 365.333 24.0481C366.261 25.5201 367.573 26.6561 369.269 27.4561C370.965 28.2561 372.965 28.6561 375.269 28.6561ZM433.111 15.1681V22.3681H406.759V15.1681H433.111ZM413.527 18.7681L411.175 33.2161L407.143 28.7041H434.695V36.7681H401.239L403.975 18.7681L401.239 0.768064H434.455V8.83207H407.143L411.175 4.32006L413.527 18.7681Z" fill="white"/>
</svg>
