<svg width="308" height="35" viewBox="0 0 308 35" fill="none" xmlns="http://www.w3.org/2000/svg">
<path d="M40.032 2.20808H36.384V2.44808H45.264V2.68808H38.304V3.16808H39.6V3.88808H40.176V4.60808H37.968V5.08808H38.736V6.04808H38.16V7.00808H42.192V7.24808H43.392V7.48808H40.08V8.44808H42.72V8.92808H37.344V9.88808H40.464V10.1281H39.744V10.6081H39.888V11.0881H40.752V11.8081H38.64V12.0481H41.568V13.0081H41.616V13.4881H40.176V14.2081H39.744V14.6881H35.376V15.6481H37.824V15.8881H39.792V16.3681H35.808V17.3281H41.712V17.5681H40.08V18.2881H40.416V18.7681H41.088V19.7281H40.176V20.4481H39.552V21.1681H40.128V21.4081H40.272V22.3681H40.656V22.6081H40.176V23.8081H41.424V24.2881H38.112V24.7681H40.128V25.4881H40.176V25.9681H39.936V26.4481H40.176V26.9281H39.84V27.1681H38.448V27.8881H36.768V28.3681H39.6V28.8481H38.688V29.3281H41.52V30.0481H44.448V31.0081H40.176V31.4881H36.768V32.2081H41.424V32.7841C41.424 32.8481 41.408 32.9121 41.376 32.9761C41.376 33.0401 41.376 33.1041 41.376 33.1681H33.408C33.376 33.2961 33.296 33.4561 33.168 33.6481H36.096C35.968 33.7761 35.872 33.8561 35.808 33.8881H39.552C39.392 34.0161 39.168 34.0801 38.88 34.0801H29.472C29.184 34.0801 28.96 34.0161 28.8 33.8881H25.056C24.928 33.8561 24.832 33.7761 24.768 33.6481H21.792C21.664 33.4561 21.584 33.2961 21.552 33.1681H29.472C29.44 33.0721 29.424 32.9441 29.424 32.7841V32.2081H24.768V31.4881H28.176V31.0081H32.448V30.0481H29.52V29.3281H26.688V28.8481H16.608V29.3281H19.296V30.0481H22.896V31.0081H21.6V31.4881H18.192V32.2081H12V32.7841C12 32.8481 11.984 32.9121 11.952 32.9761C11.952 33.0401 11.936 33.1041 11.904 33.1681H16.992C16.96 33.2961 16.88 33.4561 16.752 33.6481H21.456C21.328 33.7761 21.232 33.8561 21.168 33.8881H20.064C19.904 34.0161 19.68 34.0801 19.392 34.0801H9.98401C9.69601 34.0801 9.47201 34.0161 9.31201 33.8881H10.368C10.304 33.8561 10.208 33.7761 10.08 33.6481H5.37601C5.28001 33.5521 5.20001 33.3921 5.13601 33.1681H0.0480096C0.0160096 33.1041 9.53674e-06 32.9761 9.53674e-06 32.7841V32.2081H6.19201V31.4881H9.60001V31.0081H10.896V30.0481H7.29601V29.3281H4.60801V28.8481H14.88V28.3681H4.56001V27.8881H13.824V27.1681H9.93601V26.9281H10.656V26.4481H8.44801V25.9681H8.06401V25.4881H8.68801V24.7681H8.30401V24.2881H5.23201V23.8081H8.11201V22.8481H8.20801V22.6081H8.25601V22.3681H8.16001V21.4081H7.96801V21.1681H8.68801V20.4481H8.06401V19.7281H9.12001V18.7681H8.20801V18.2881H8.30401V17.5681H8.59201V17.3281H4.03201V16.3681H9.98401V15.8881H5.52001V15.6481H3.55201V14.6881H8.92801V14.2081H8.68801V13.4881H9.69601V13.0081H8.59201V12.0481H10.752V11.8081H8.01601V11.0881H8.11201V10.6081H7.96801V10.1281H8.68801V9.88808H5.56801V8.92808H10.944V8.44808H8.30401V7.48808H11.616V7.24808H10.416V7.00808H6.38401V6.04808H6.96001V5.08808H6.19201V4.60808H8.40001V3.88808H7.82401V3.16808H6.52801V2.68808H13.488V2.44808H4.60801V2.20808H8.25601V1.96808H13.824V1.77608C13.824 1.52008 13.856 1.34408 13.92 1.24808H6.38401C6.41601 1.15208 6.46401 1.07208 6.52801 1.00808C6.59201 0.912077 6.65601 0.832077 6.72001 0.768078H13.056C13.312 0.576077 13.584 0.480076 13.872 0.480076H43.056C43.408 0.480076 43.68 0.576077 43.872 0.768078H37.536C37.696 0.896076 37.824 1.05608 37.92 1.24808H45.456C45.552 1.37608 45.6 1.55208 45.6 1.77608V1.96808H40.032V2.20808ZM28.752 11.8081V11.0881H27.888V11.0401H20.112V11.0881H20.016V11.8081H22.752V12.0481H20.592V13.0081H21.696V13.4881H20.688V14.2081H20.928V14.6881H15.552V15.6481H17.52V15.8881H21.984V16.3681H16.032V17.3281H20.592V17.5681H20.304V18.2881H20.208V18.7681H21.12V19.7281H20.064V20.4481H20.688V21.1681H19.968V21.4081H20.16V22.3681H20.256V22.6081H20.208V22.8481H20.112V23.8081H17.232V24.2881H20.304V24.7681H20.688V25.4881H20.064V25.9681H20.448V26.4481H22.656V26.9281H21.936V27.1681H25.824V27.8881H26.448V27.1681H27.84V26.9281H28.176V26.4481H27.936V25.9681H28.176V25.4881H28.128V24.7681H26.112V24.2881H29.424V23.8081H28.176V22.6081H28.656V22.3681H28.272V21.4081H28.128V21.1681H27.552V20.4481H28.176V19.7281H29.088V18.7681H28.416V18.2881H28.08V17.5681H29.712V17.3281H23.808V16.3681H27.792V15.8881H25.824V15.6481H23.376V14.6881H27.744V14.2081H28.176V13.4881H29.616V13.0081H29.568V12.0481H26.64V11.8081H28.752ZM16.56 28.3681H24.768V27.8881H16.56V28.3681ZM27.6 28.8481V28.3681H26.88V28.8481H27.6ZM75.7661 12.5281H75.2381V13.2481H76.3421V13.4881H75.9101L75.7661 14.4481H76.2941C76.2621 14.5121 76.2461 14.5921 76.2461 14.6881H75.5741C75.5421 14.8481 75.5101 15.0081 75.4781 15.1681C75.4461 15.3281 75.3981 15.4881 75.3341 15.6481C75.3341 15.7761 75.3021 15.9361 75.2381 16.1281H74.7581L74.4701 16.8481H74.4221C74.3901 17.0081 74.3261 17.1681 74.2301 17.3281C74.1341 17.4881 74.0541 17.6481 73.9901 17.8081H74.0861L73.9421 18.0481H74.3741C74.2781 18.2081 74.1821 18.3681 74.0861 18.5281C73.9901 18.6881 73.8781 18.8481 73.7501 19.0081H74.0861C73.9581 19.1681 73.8141 19.3281 73.6541 19.4881C73.5261 19.6481 73.3821 19.8081 73.2221 19.9681H73.1261C72.9341 20.1281 72.7421 20.2881 72.5501 20.4481C72.3901 20.6081 72.1981 20.7681 71.9741 20.9281H71.6861C71.4301 21.0881 71.1581 21.2481 70.8701 21.4081C70.6141 21.5681 70.3421 21.7281 70.0541 21.8881H70.1981C70.1341 21.9201 70.0541 21.9521 69.9581 21.9841C69.8621 22.0161 69.7821 22.0641 69.7181 22.1281H69.6701C69.0621 22.4161 68.3901 22.6561 67.6541 22.8481C67.3021 22.9441 66.9341 23.0401 66.5501 23.1361C66.1661 23.2001 65.7821 23.2641 65.3981 23.3281H65.3501C64.0701 23.5201 62.7101 23.6161 61.2701 23.6161H57.9101V24.0481H58.2461V25.0081H58.8221V25.2481H57.6701V25.7281H58.1021V26.4481H56.9021V26.6881H58.3901V27.6481H57.9581V28.8481H58.1501V29.5681H57.5741V30.5281H57.3341V31.0081H58.9181V31.7281H57.5741V32.6881H58.4861V32.7841C58.4861 32.9441 58.4701 33.0721 58.4381 33.1681H58.1501C58.1501 33.2001 58.1181 33.2801 58.0541 33.4081H58.1981C58.1661 33.4721 58.1021 33.5521 58.0061 33.6481H58.0541C57.9261 33.7761 57.8301 33.8561 57.7661 33.8881H57.8141C57.6541 34.0161 57.4301 34.0801 57.1421 34.0801H47.2541C46.9661 34.0801 46.7421 34.0161 46.5821 33.8881H46.4861C46.4221 33.8561 46.3261 33.7761 46.1981 33.6481C46.1661 33.5841 46.1341 33.5361 46.1021 33.5041C46.0701 33.4721 46.0541 33.4401 46.0541 33.4081H45.9101C45.8461 33.2801 45.8141 33.2001 45.8141 33.1681H46.0541C46.0221 33.0721 46.0061 32.9441 46.0061 32.7841V32.6881H45.0941V31.7281H46.4381V31.0081H44.8541V30.5281H45.0941V29.5681H45.6701V28.8481H45.4781V27.6481H45.9101V26.6881H44.4221V26.4481H45.6221V25.7281H45.1901V25.2481H46.3421V25.0081H45.7661V24.0481H45.4301V23.3281H45.4781V21.8881H45.3821V20.9281H45.6701V19.9681H45.8141V19.0081H45.4781V18.0481H45.0461V17.8081H44.9501V16.8481H44.9981V16.1281H45.4781V14.6881H45.3341V14.4481H45.1901V13.4881H45.7181V13.2481H45.5261V12.5281H45.7181V12.0481H45.6701V11.5681H44.3261V10.6081H38.9981V9.88808H41.4461V8.92808H45.8141V8.44808H43.9901V7.48808H42.8861V6.76808H43.6061V6.52808H42.5981V5.56808H46.2941V5.32808H45.8141V4.60808H44.7101V3.88808H43.1741V2.92808H46.6301V2.20808H44.9501V1.96808H44.6141V1.72808H45.4781C45.4781 1.60008 45.5101 1.44008 45.5741 1.24808H45.0461C45.0781 1.15208 45.1261 1.07208 45.1901 1.00808C45.2541 0.912077 45.3181 0.832077 45.3821 0.768078H48.3101C48.5661 0.576077 48.8381 0.480076 49.1261 0.480076H63.6701C65.0781 0.480076 66.3741 0.576077 67.5581 0.768078H64.6781C65.0621 0.832077 65.4301 0.912077 65.7821 1.00808C66.1661 1.07208 66.5181 1.15208 66.8381 1.24808H67.4141C67.6701 1.31208 67.9101 1.39208 68.1341 1.48808C68.3901 1.55208 68.6301 1.63208 68.8541 1.72808H67.9901C68.0861 1.76008 68.1821 1.79208 68.2781 1.82408C68.3741 1.85608 68.4701 1.90408 68.5661 1.96808H68.8541L69.3821 2.20808H71.1101L72.3581 2.92808H68.8541C69.1101 3.05608 69.3341 3.21608 69.5261 3.40808C69.7181 3.56808 69.9101 3.72808 70.1021 3.88808H71.6381L72.3581 4.60808H73.4621C73.5581 4.73608 73.6541 4.86408 73.7501 4.99208C73.8781 5.08808 73.9741 5.20008 74.0381 5.32808H74.5181C74.6141 5.42408 74.6781 5.50408 74.7101 5.56808H71.0141C71.1101 5.69608 71.2061 5.85608 71.3021 6.04808C71.3981 6.20808 71.4941 6.36808 71.5901 6.52808H72.5981L72.6941 6.76808H72.0221L72.3101 7.48808H73.4621L73.7501 8.44808H75.5741L75.7181 8.92808H71.3501C71.4141 9.05608 71.4461 9.21608 71.4461 9.40808C71.4781 9.56808 71.5101 9.72808 71.5421 9.88808H77.6861C77.7181 10.0161 77.7341 10.1441 77.7341 10.2721C77.7341 10.3681 77.7501 10.4801 77.7821 10.6081H77.5421C77.5741 10.7681 77.5901 10.9281 77.5901 11.0881C77.6221 11.2481 77.6381 11.4081 77.6381 11.5681H75.7661V12.5281ZM63.7181 13.2481H62.6141L62.7581 12.5281H63.2861V12.0481C63.2861 11.9841 63.2861 11.9041 63.2861 11.8081C63.2861 11.7121 63.2701 11.6321 63.2381 11.5681H65.1101C65.0781 11.4081 65.0461 11.2481 65.0141 11.0881C64.9821 10.8961 64.9341 10.7361 64.8701 10.6081H65.0621C64.9981 10.3521 64.8381 10.1121 64.5821 9.88808H58.4381C58.0541 9.56808 57.5901 9.40808 57.0461 9.40808H53.6861V9.88808H51.2381V10.6081H56.5661V11.5681H57.9101V12.0481H57.9581V12.5281H57.7661V13.2481H57.9581V13.4881H57.4301V14.4481H57.5741V14.6881H57.7181V14.7361H61.0781C61.2701 14.7361 61.4141 14.7201 61.5101 14.6881H62.1821C62.3101 14.6561 62.4221 14.6241 62.5181 14.5921C62.6141 14.5281 62.7101 14.4801 62.8061 14.4481H62.3261C62.7101 14.2241 62.9981 13.9041 63.1901 13.4881H63.6221C63.6861 13.3601 63.7181 13.2801 63.7181 13.2481ZM109.898 15.6481H112.298V16.6081H111.866V17.5681H111.434V18.2881H110.426V18.5281H110.81V18.7681H109.466V19.2481H111.77V19.9681H110.378V20.2081H110.426C110.426 20.3681 110.41 20.5281 110.378 20.6881C110.378 20.8481 110.378 21.0081 110.378 21.1681H110.33C110.298 21.2641 110.282 21.4081 110.282 21.6001V22.1281H110.042C110.01 22.1921 109.994 22.2721 109.994 22.3681C109.994 22.4641 109.994 22.5441 109.994 22.6081H110.474L110.33 23.5681H109.898C109.866 23.7281 109.834 23.8881 109.802 24.0481C109.802 24.2081 109.77 24.3681 109.706 24.5281H110.234C110.234 24.5601 110.218 24.5921 110.186 24.6241C110.186 24.6561 110.186 24.7041 110.186 24.7681H110.906C110.906 24.8001 110.89 24.8321 110.858 24.8641C110.858 24.8961 110.858 24.9441 110.858 25.0081H109.994C109.962 25.1361 109.93 25.2641 109.898 25.3921C109.866 25.4881 109.834 25.6001 109.802 25.7281H109.658L109.37 26.4481H108.842C108.81 26.5761 108.762 26.7041 108.698 26.8321C108.634 26.9281 108.57 27.0401 108.506 27.1681H108.938C108.874 27.3281 108.794 27.4881 108.698 27.6481H108.41C108.378 27.7761 108.314 27.9041 108.218 28.0321C108.154 28.1281 108.09 28.2401 108.026 28.3681H109.514L109.178 28.8481H107.402L106.874 29.5681H107.402L106.73 30.2881H107.258C107.226 30.3201 107.178 30.3521 107.114 30.3841C107.082 30.4161 107.05 30.4641 107.018 30.5281H107.594C107.498 30.5921 107.402 30.6721 107.306 30.7681C107.242 30.8641 107.162 30.9441 107.066 31.0081H106.154C106.058 31.0721 105.962 31.1521 105.866 31.2481C105.77 31.3441 105.658 31.4241 105.53 31.4881H105.866C105.77 31.5521 105.658 31.6321 105.53 31.7281C105.434 31.8241 105.322 31.9041 105.194 31.9681H105.098C104.81 32.1281 104.522 32.2881 104.234 32.4481C103.946 32.6081 103.642 32.7681 103.322 32.9281H103.178C103.082 32.9601 102.986 32.9921 102.89 33.0241C102.794 33.0561 102.698 33.1041 102.602 33.1681C102.378 33.2641 102.154 33.3601 101.93 33.4561C101.738 33.5201 101.514 33.5841 101.258 33.6481H101.21C100.154 33.9681 99.0019 34.2081 97.7539 34.3681H97.8019C97.2899 34.4321 96.7459 34.4801 96.1699 34.5121C95.6259 34.5441 95.0819 34.5601 94.5379 34.5601C93.9619 34.5601 93.4019 34.5441 92.8579 34.5121C92.3139 34.4801 91.7699 34.4321 91.2259 34.3681C90.0099 34.2401 88.8419 34.0001 87.7219 33.6481H87.7699C87.5459 33.5841 87.3219 33.5201 87.0979 33.4561C86.8739 33.3601 86.6499 33.2641 86.4259 33.1681H86.3779C86.2819 33.1041 86.1859 33.0561 86.0899 33.0241C85.9939 32.9921 85.8979 32.9601 85.8019 32.9281H85.9459C85.6259 32.7681 85.3219 32.6081 85.0339 32.4481C84.7459 32.2881 84.4579 32.1281 84.1699 31.9681H84.2659L83.5459 31.4881H83.2579C83.1299 31.4241 83.0179 31.3441 82.9219 31.2481C82.8259 31.1521 82.7299 31.0721 82.6339 31.0081H83.5459L82.9699 30.5281H82.3939C82.3619 30.4641 82.3299 30.4161 82.2979 30.3841C82.2659 30.3521 82.2179 30.3201 82.1539 30.2881H81.6739C81.5459 30.1601 81.4179 30.0481 81.2899 29.9521C81.1939 29.8241 81.0979 29.6961 81.0019 29.5681H80.4739L79.8979 28.8481H81.6739L81.3859 28.3681H79.8499C79.7859 28.2401 79.7219 28.1281 79.6579 28.0321C79.5939 27.9041 79.5299 27.7761 79.4659 27.6481H79.7539C79.6579 27.4881 79.5779 27.3281 79.5139 27.1681H79.0819C79.0179 27.0401 78.9539 26.9281 78.8899 26.8321C78.8579 26.7041 78.8099 26.5761 78.7459 26.4481H79.3219L79.0339 25.7281H79.1779C79.1459 25.6001 79.1139 25.4881 79.0819 25.3921C79.0499 25.2641 79.0179 25.1361 78.9859 25.0081H79.5139C79.4819 24.9441 79.4659 24.8641 79.4659 24.7681H78.9859C78.9859 24.7041 78.9699 24.6561 78.9379 24.6241C78.9379 24.5921 78.9379 24.5601 78.9379 24.5281H78.8419C78.8099 24.3681 78.7779 24.2081 78.7459 24.0481C78.7139 23.8881 78.6819 23.7281 78.6499 23.5681H78.8899C78.8579 23.4081 78.8259 23.2481 78.7939 23.0881C78.7939 22.9281 78.7939 22.7681 78.7939 22.6081H78.5059L78.4579 22.1281H78.7939V21.6001C78.7939 21.5361 78.7779 21.4721 78.7459 21.4081C78.7459 21.3121 78.7459 21.2321 78.7459 21.1681H78.1219C78.0899 21.0081 78.0739 20.8481 78.0739 20.6881C78.0739 20.5281 78.0739 20.3681 78.0739 20.2081H78.4099V19.9681H78.2659V19.2481H79.2259V18.7681H77.5459V18.5281H78.4579V18.2881H78.4099V17.5681H78.1699V16.6081H78.4579V15.6481H78.1219V14.9281H76.3459V13.9681H78.4099C78.4419 13.9041 78.4579 13.8241 78.4579 13.7281H79.2259V13.4881H78.6499V13.0081H78.6979L78.7939 12.0481H78.6979C78.6979 11.9201 78.6979 11.8081 78.6979 11.7121C78.7299 11.5841 78.7619 11.4561 78.7939 11.3281H78.6499C78.6499 11.2001 78.6499 11.0881 78.6499 10.9921C78.6819 10.8641 78.7139 10.7361 78.7459 10.6081H78.6499C78.6819 10.4801 78.7139 10.3681 78.7459 10.2721C78.7779 10.1441 78.8099 10.0161 78.8419 9.88808H77.4979C77.4979 9.82408 77.4979 9.77608 77.4979 9.74408C77.5299 9.71208 77.5459 9.68008 77.5459 9.64808H78.9859L79.1299 9.16808H79.0339L79.1299 8.92808H79.8499C79.8819 8.86408 79.9139 8.78408 79.9459 8.68808C79.9779 8.59208 80.0099 8.51208 80.0419 8.44808H79.5619C79.6579 8.16008 79.7859 7.84008 79.9459 7.48808H79.8019C79.8979 7.32808 79.9779 7.16808 80.0419 7.00808C80.1379 6.81608 80.2339 6.65608 80.3299 6.52808H80.4739L80.6179 6.28808H79.8499L79.9939 6.04808H80.7619L80.9059 5.80808H80.8099L81.3859 5.08808H81.0499L81.6739 4.36808C81.8339 4.20808 81.9939 4.04808 82.1539 3.88808C82.3459 3.69608 82.5379 3.53608 82.7299 3.40808H82.2499L82.5379 3.16808H82.0099C82.0739 3.10408 82.1219 3.05608 82.1539 3.02408C82.2179 2.99208 82.2819 2.96008 82.3459 2.92808H83.5459C83.6739 2.86408 83.8019 2.78408 83.9299 2.68808C84.0579 2.59208 84.1859 2.51208 84.3139 2.44808H84.4579C84.7779 2.28808 85.0979 2.12808 85.4179 1.96808C85.7379 1.77608 86.0579 1.61608 86.3779 1.48808H86.5219C87.1619 1.20008 87.8659 0.960077 88.6339 0.768078H88.8739C89.8019 0.512077 90.7779 0.320077 91.8019 0.192077C92.8259 0.0640764 93.8819 7.62939e-05 94.9699 7.62939e-05C97.2419 7.62939e-05 99.2579 0.256077 101.018 0.768078H100.73C101.082 0.864077 101.434 0.976076 101.786 1.10408C102.138 1.20008 102.474 1.32808 102.794 1.48808H102.602C102.954 1.61608 103.274 1.77608 103.562 1.96808C103.882 2.12808 104.202 2.28808 104.522 2.44808H104.33L105.05 2.92808H103.85C103.914 2.96008 103.962 2.99208 103.994 3.02408C104.058 3.05608 104.122 3.10408 104.186 3.16808H104.714C104.778 3.20008 104.842 3.23208 104.906 3.26408C104.97 3.29608 105.018 3.34408 105.05 3.40808H105.53C105.722 3.53608 105.898 3.69608 106.058 3.88808C106.25 4.04808 106.426 4.20808 106.586 4.36808H106.634C106.762 4.49608 106.874 4.62408 106.97 4.75208C107.066 4.84808 107.162 4.96008 107.258 5.08808H107.594L108.17 5.80808H108.266C108.362 5.90408 108.426 5.98408 108.458 6.04808H107.69L107.834 6.28808H108.65L108.794 6.52808H108.65C108.746 6.65608 108.826 6.81608 108.89 7.00808C108.986 7.16808 109.082 7.32808 109.178 7.48808H109.322L109.754 8.44808H110.234L110.378 8.92808H109.658L109.754 9.16808H109.85L109.994 9.64808H109.85C109.85 9.68008 109.85 9.71208 109.85 9.74408C109.882 9.77608 109.898 9.82408 109.898 9.88808H107.882C107.946 10.0161 107.978 10.1441 107.978 10.2721C108.01 10.3681 108.042 10.4801 108.074 10.6081H110.57C110.602 10.7361 110.618 10.8641 110.618 10.9921C110.65 11.0881 110.666 11.2001 110.666 11.3281H109.994C110.026 11.4561 110.042 11.5841 110.042 11.7121C110.074 11.8081 110.09 11.9201 110.09 12.0481H110.714L110.81 13.0081H110.186V13.1521C110.186 13.1841 110.186 13.2321 110.186 13.2961C110.218 13.3601 110.234 13.4241 110.234 13.4881H111.53V13.7281H110.378C110.41 13.7921 110.426 13.8721 110.426 13.9681H111.29C111.322 14.1281 111.338 14.2881 111.338 14.4481C111.338 14.6081 111.338 14.7681 111.338 14.9281H109.898V15.6481ZM99.3859 16.6081H99.8179V15.6481H97.4179V14.9281H98.8579C98.8579 14.7681 98.8579 14.6081 98.8579 14.4481C98.8579 14.2881 98.8419 14.1281 98.8099 13.9681H97.9459C97.9459 13.9041 97.9299 13.8561 97.8979 13.8241C97.8979 13.7921 97.8979 13.7601 97.8979 13.7281H99.0499V13.4881H97.7539C97.7539 13.4241 97.7379 13.3761 97.7059 13.3441C97.7059 13.3121 97.7059 13.2801 97.7059 13.2481V13.0081H98.2819C98.2819 12.8481 98.2659 12.6881 98.2339 12.5281C98.2339 12.3361 98.2179 12.1761 98.1859 12.0481H97.5619C97.5299 11.9201 97.4979 11.8081 97.4659 11.7121C97.4339 11.5841 97.3859 11.4561 97.3219 11.3281H97.9939C97.8979 11.0721 97.7699 10.8321 97.6099 10.6081H95.1139C94.9539 10.3521 94.6979 10.1121 94.3459 9.88808H96.3619C96.1699 9.76008 96.0259 9.68008 95.9299 9.64808H96.0739C95.5939 9.45608 95.0659 9.36008 94.4899 9.36008C93.9139 9.36008 93.3859 9.45608 92.9059 9.64808H91.5139C91.3859 9.68008 91.2259 9.76008 91.0339 9.88808H92.3779C92.1219 10.0481 91.8659 10.2881 91.6099 10.6081H91.7059C91.5459 10.8321 91.4179 11.0721 91.3219 11.3281H91.4659C91.4339 11.4561 91.4019 11.5841 91.3699 11.7121C91.3379 11.8081 91.2899 11.9201 91.2259 12.0481H91.3219C91.2899 12.1761 91.2579 12.3361 91.2259 12.5281C91.2259 12.6881 91.2259 12.8481 91.2259 13.0081H91.1299V13.4881H91.7059V13.7281H90.9379V13.9681H88.8259V14.9281H90.6019V15.6481H90.9379V16.6081H90.6499V17.5681H90.8899V18.2881H90.9379C90.9379 18.3841 90.9539 18.4641 90.9859 18.5281H90.0259V18.7681H91.7059V19.2481H90.7459V19.9681H90.8899V20.2081H90.5539C90.5539 20.3681 90.5539 20.5281 90.5539 20.6881C90.5859 20.8481 90.6019 21.0081 90.6019 21.1681H91.2739V21.3121C91.2739 21.4401 91.2739 21.5841 91.2739 21.7441C91.2739 21.8721 91.2899 22.0001 91.3219 22.1281H90.9859C91.0179 22.1921 91.0339 22.2721 91.0339 22.3681C91.0339 22.4641 91.0499 22.5441 91.0819 22.6081H91.3699C91.4019 22.7681 91.4499 22.9281 91.5139 23.0881C91.5779 23.2481 91.6419 23.4081 91.7059 23.5681H91.4659C91.6579 23.9201 91.9139 24.2401 92.2339 24.5281H92.3299C92.3939 24.5601 92.4579 24.6081 92.5219 24.6721C92.5859 24.7041 92.6499 24.7361 92.7139 24.7681H93.1459C93.2419 24.8001 93.3379 24.8481 93.4339 24.9121C93.5299 24.9441 93.6259 24.9761 93.7219 25.0081H93.1459C93.5299 25.1361 93.9779 25.2001 94.4899 25.2001C95.0019 25.2001 95.4499 25.1361 95.8339 25.0081H96.6499C96.7459 24.9761 96.8419 24.9441 96.9379 24.9121C97.0339 24.8481 97.1299 24.8001 97.2259 24.7681H96.4579C96.5219 24.7361 96.5859 24.7041 96.6499 24.6721C96.7139 24.6081 96.7779 24.5601 96.8419 24.5281H96.3139C96.6019 24.3041 96.8579 23.9841 97.0819 23.5681H97.5139C97.6739 23.2161 97.8019 22.8961 97.8979 22.6081H97.4179C97.4499 22.5441 97.4659 22.4641 97.4659 22.3681C97.4659 22.2721 97.4819 22.1921 97.5139 22.1281H97.7539C97.7859 22.0001 97.8019 21.8721 97.8019 21.7441C97.8019 21.5841 97.8019 21.4401 97.8019 21.3121V21.1681H97.8979C97.8979 21.0081 97.8979 20.8481 97.8979 20.6881C97.8979 20.5281 97.9139 20.3681 97.9459 20.2081H97.8979V19.9681H99.2899V19.2481H96.9859V18.7681H98.3299V18.5281H97.9459V18.2881H98.9539V17.5681H99.3859V16.6081ZM157.549 27.8881H150.733L150.349 28.6081H153.853L153.565 29.0881H152.557C152.525 29.1201 152.493 29.1521 152.461 29.1841C152.429 29.2161 152.397 29.2641 152.365 29.3281H152.797C152.701 29.4241 152.637 29.5041 152.605 29.5681H153.181C153.085 29.6961 152.989 29.8241 152.893 29.9521C152.797 30.0481 152.685 30.1601 152.557 30.2881H154.525L154.285 30.5281H149.101C149.005 30.5921 148.909 30.6721 148.813 30.7681C148.749 30.8641 148.669 30.9441 148.573 31.0081H154.381L153.757 31.4881H148.333C148.109 31.6481 147.853 31.8081 147.565 31.9681C147.309 32.1281 147.037 32.2881 146.749 32.4481H148.669C148.317 32.6401 147.949 32.8161 147.565 32.9761C147.181 33.1041 146.781 33.2481 146.365 33.4081H145.597C144.765 33.6961 143.821 33.9361 142.765 34.1281H143.581C143.325 34.1601 143.053 34.1921 142.765 34.2241C142.509 34.2881 142.237 34.3361 141.949 34.3681H139.645C139.101 34.4321 138.541 34.4801 137.965 34.5121C137.389 34.5441 136.797 34.5601 136.189 34.5601C135.549 34.5601 134.941 34.5441 134.365 34.5121C133.789 34.4801 133.229 34.4321 132.685 34.3681H134.989C134.733 34.3361 134.461 34.2881 134.173 34.2241C133.917 34.1921 133.661 34.1601 133.405 34.1281H132.637C131.613 33.9361 130.685 33.6961 129.853 33.4081H130.573C129.741 33.0881 129.021 32.7681 128.413 32.4481H126.493C126.205 32.2881 125.933 32.1281 125.677 31.9681C125.453 31.8081 125.213 31.6481 124.957 31.4881H130.429C130.301 31.4241 130.189 31.3441 130.093 31.2481C129.997 31.1521 129.901 31.0721 129.805 31.0081H123.997C123.901 30.9441 123.805 30.8641 123.709 30.7681C123.645 30.6721 123.565 30.5921 123.469 30.5281H128.653C128.621 30.4641 128.589 30.4161 128.557 30.3841C128.525 30.3521 128.477 30.3201 128.413 30.2881H126.445L125.821 29.5681H125.245C125.149 29.4721 125.085 29.3921 125.053 29.3281H124.669C124.573 29.2321 124.509 29.1521 124.477 29.0881H125.485L125.197 28.6081H121.645C121.581 28.4801 121.517 28.3681 121.453 28.2721C121.389 28.1441 121.325 28.0161 121.261 27.8881H128.077C128.045 27.7601 127.997 27.6481 127.933 27.5521C127.869 27.4241 127.805 27.2961 127.741 27.1681H122.653L122.509 26.6881H124.285C124.253 26.5601 124.221 26.4481 124.189 26.3521C124.157 26.2241 124.125 26.0961 124.093 25.9681H125.005L124.861 25.4881H123.805C123.773 25.3281 123.741 25.1841 123.709 25.0561C123.709 24.8961 123.709 24.7521 123.709 24.6241V24.5281H122.941C122.941 24.2721 123.053 24.0321 123.277 23.8081H123.085C123.309 23.6481 123.533 23.5681 123.757 23.5681H133.165C133.581 23.5681 133.917 23.6481 134.173 23.8081H134.413L135.037 24.3361L135.229 24.5281H135.997C136.317 24.7521 136.701 24.9441 137.149 25.1041C137.629 25.2321 138.253 25.2961 139.021 25.2961C140.589 25.2961 141.629 25.0401 142.141 24.5281H140.845C141.069 24.3041 141.197 24.0641 141.229 23.8081V23.3281H141.709C141.709 23.1681 141.693 23.0401 141.661 22.9441C141.629 22.8161 141.581 22.7041 141.517 22.6081H141.757C141.661 22.4481 141.517 22.2881 141.325 22.1281H139.357C139.197 22.0321 139.037 21.9521 138.877 21.8881H138.973C138.621 21.7601 138.253 21.6801 137.869 21.6481H139.357C139.197 21.6161 139.021 21.6001 138.829 21.6001C138.669 21.6001 138.493 21.6001 138.301 21.6001H134.701C134.253 21.6001 133.885 21.3761 133.597 20.9281H133.789C133.661 20.7681 133.597 20.5281 133.597 20.2081V19.9681H132.493V19.7281H131.773V18.7681H134.701V17.8081H133.309V17.5681H131.293V16.6081H133.261V15.8881H134.461V15.1681H131.677V14.2081H133.693C133.789 13.7601 133.997 13.4401 134.317 13.2481H131.917C132.077 13.1201 132.301 13.0561 132.589 13.0561H136.189C137.149 13.0561 137.853 12.8801 138.301 12.5281H136.189C136.253 12.4641 136.317 12.4001 136.381 12.3361C136.477 12.2401 136.541 12.1441 136.573 12.0481H138.973C139.069 11.8561 139.117 11.6161 139.117 11.3281V11.0881H140.461C140.461 10.9601 140.429 10.8001 140.365 10.6081H142.189C142.029 10.1921 141.709 9.87208 141.229 9.64808H140.557C140.141 9.45608 139.549 9.36008 138.781 9.36008C138.365 9.36008 137.997 9.39208 137.677 9.45608C137.389 9.52008 137.117 9.58408 136.861 9.64808H136.237C135.949 9.74408 135.725 9.85608 135.565 9.98408C135.405 10.1121 135.293 10.2241 135.229 10.3201L134.989 10.6081H132.493C132.205 10.9281 131.773 11.0881 131.197 11.0881H121.693C121.309 11.0881 121.005 10.9281 120.781 10.6081H123.277C123.181 10.4481 123.133 10.2561 123.133 10.0321C123.133 9.96808 123.133 9.90408 123.133 9.84008C123.165 9.77608 123.181 9.71208 123.181 9.64808H123.805L123.853 9.16808H126.685C126.717 9.10408 126.733 9.02408 126.733 8.92808H122.989C123.021 8.80008 123.053 8.68808 123.085 8.59208C123.117 8.46408 123.149 8.33608 123.181 8.20808H122.365L122.653 7.48808H123.661C123.725 7.36008 123.757 7.28008 123.757 7.24808H123.613C123.677 7.12008 123.725 7.00808 123.757 6.91208C123.821 6.78408 123.885 6.65608 123.949 6.52808H123.373L123.661 6.04808H125.389L125.533 5.80808H121.405L121.741 5.32808H126.157L126.733 4.60808H124.237C124.269 4.54408 124.333 4.46408 124.429 4.36808H127.117C127.149 4.30408 127.181 4.25608 127.213 4.22408C127.277 4.19208 127.325 4.16008 127.357 4.12808H122.653C122.813 3.96808 122.973 3.80808 123.133 3.64808C123.325 3.45608 123.517 3.29608 123.709 3.16808H127.549L127.837 2.92808H121.549C121.709 2.80008 121.885 2.68808 122.077 2.59208C122.269 2.46408 122.461 2.33608 122.653 2.20808H123.133C123.357 2.08008 123.597 1.96808 123.853 1.87208C124.109 1.74408 124.365 1.61608 124.621 1.48808H129.229C129.421 1.39208 129.629 1.31208 129.853 1.24808C130.077 1.15208 130.301 1.07208 130.525 1.00808H131.437C132.429 0.688076 133.533 0.448075 134.749 0.288075C135.965 0.096076 137.309 7.62939e-05 138.781 7.62939e-05C139.997 7.62939e-05 141.165 0.096076 142.285 0.288075C143.437 0.448075 144.509 0.688076 145.501 1.00808H144.589C144.813 1.07208 145.021 1.15208 145.213 1.24808C145.437 1.31208 145.661 1.39208 145.885 1.48808H141.229C141.485 1.61608 141.741 1.74408 141.997 1.87208C142.253 1.96808 142.493 2.08008 142.717 2.20808H142.237C142.685 2.43208 143.069 2.67208 143.389 2.92808H149.725C149.789 2.96008 149.853 2.99208 149.917 3.02408C149.981 3.05608 150.029 3.10408 150.061 3.16808H146.221C146.605 3.42408 146.989 3.74408 147.373 4.12808H152.077C152.109 4.16008 152.141 4.19208 152.173 4.22408C152.237 4.25608 152.285 4.30408 152.317 4.36808H149.629C149.661 4.40008 149.693 4.43208 149.725 4.46408C149.757 4.49608 149.789 4.54408 149.821 4.60808H152.317C152.445 4.73608 152.557 4.86408 152.653 4.99208C152.749 5.08808 152.845 5.20008 152.941 5.32808H148.525L148.813 5.80808H152.989L153.133 6.04808H151.357L151.645 6.52808H152.173C152.237 6.65608 152.301 6.78408 152.365 6.91208C152.429 7.00808 152.477 7.12008 152.509 7.24808H152.653C152.717 7.37608 152.749 7.45608 152.749 7.48808H151.693C151.757 7.61608 151.805 7.74408 151.837 7.87208C151.869 7.96808 151.901 8.08008 151.933 8.20808H152.749C152.781 8.33608 152.797 8.46408 152.797 8.59208C152.829 8.68808 152.845 8.80008 152.845 8.92808H156.637V9.16808H153.805C153.837 9.23208 153.853 9.31208 153.853 9.40808C153.853 9.50408 153.853 9.58408 153.853 9.64808H154.573V10.6081H152.749C152.749 10.6721 152.749 10.7521 152.749 10.8481C152.749 10.9441 152.733 11.0241 152.701 11.0881H151.357C151.325 11.2481 151.293 11.4081 151.261 11.5681C151.261 11.7281 151.229 11.8881 151.165 12.0481H148.765L148.621 12.5281H150.733L150.445 13.2481H152.845C152.781 13.4081 152.701 13.5681 152.605 13.7281C152.509 13.8881 152.413 14.0481 152.317 14.2081H150.253C150.061 14.5601 149.789 14.8801 149.437 15.1681H152.269L151.405 15.8881H150.205C150.077 15.9841 149.933 16.0801 149.773 16.1761C149.645 16.2721 149.501 16.3521 149.341 16.4161C149.405 16.4481 149.469 16.4801 149.533 16.5121C149.597 16.5441 149.661 16.5761 149.725 16.6081H147.757C148.269 16.8961 148.733 17.2161 149.149 17.5681H151.213C151.277 17.6001 151.325 17.6321 151.357 17.6641C151.389 17.6961 151.421 17.7441 151.453 17.8081H152.845C153.165 18.0641 153.453 18.3841 153.709 18.7681H150.781C150.909 18.8961 151.021 19.0561 151.117 19.2481C151.245 19.4081 151.341 19.5681 151.405 19.7281H152.125L152.269 19.9681H153.373C153.437 20.0961 153.469 20.1761 153.469 20.2081C153.533 20.3361 153.597 20.4641 153.661 20.5921C153.725 20.6881 153.773 20.8001 153.805 20.9281H153.613C153.645 21.0561 153.677 21.1841 153.709 21.3121C153.741 21.4081 153.773 21.5201 153.805 21.6481H152.317C152.349 21.7121 152.365 21.7921 152.365 21.8881H152.269C152.269 21.9841 152.285 22.0641 152.317 22.1281H154.285L154.333 22.6081H154.093C154.125 22.7361 154.141 22.8641 154.141 22.9921C154.141 23.0881 154.141 23.2001 154.141 23.3281H153.709V24.5281H154.957C154.957 24.6881 154.941 24.8481 154.909 25.0081C154.909 25.1681 154.893 25.3281 154.861 25.4881H155.917L155.869 25.9681H154.909L154.765 26.6881H152.941L152.797 27.1681H157.885C157.853 27.2961 157.805 27.4241 157.741 27.5521C157.677 27.6481 157.613 27.7601 157.549 27.8881ZM188.742 15.6481H191.142V16.6081H190.71V17.5681H190.278V18.2881H189.27V18.5281H189.654V18.7681H188.31V19.2481H190.614V19.9681H189.222V20.2081H189.27C189.27 20.3681 189.254 20.5281 189.222 20.6881C189.222 20.8481 189.222 21.0081 189.222 21.1681H189.174C189.142 21.2641 189.126 21.4081 189.126 21.6001V22.1281H188.886C188.854 22.1921 188.838 22.2721 188.838 22.3681C188.838 22.4641 188.838 22.5441 188.838 22.6081H189.318L189.174 23.5681H188.742C188.71 23.7281 188.678 23.8881 188.646 24.0481C188.646 24.2081 188.614 24.3681 188.55 24.5281H189.078C189.078 24.5601 189.062 24.5921 189.03 24.6241C189.03 24.6561 189.03 24.7041 189.03 24.7681H189.75C189.75 24.8001 189.734 24.8321 189.702 24.8641C189.702 24.8961 189.702 24.9441 189.702 25.0081H188.838C188.806 25.1361 188.774 25.2641 188.742 25.3921C188.71 25.4881 188.678 25.6001 188.646 25.7281H188.502L188.214 26.4481H187.686C187.654 26.5761 187.606 26.7041 187.542 26.8321C187.478 26.9281 187.414 27.0401 187.35 27.1681H187.782C187.718 27.3281 187.638 27.4881 187.542 27.6481H187.254C187.222 27.7761 187.158 27.9041 187.062 28.0321C186.998 28.1281 186.934 28.2401 186.87 28.3681H188.358L188.022 28.8481H186.246L185.718 29.5681H186.246L185.574 30.2881H186.102C186.07 30.3201 186.022 30.3521 185.958 30.3841C185.926 30.4161 185.894 30.4641 185.862 30.5281H186.438C186.342 30.5921 186.246 30.6721 186.15 30.7681C186.086 30.8641 186.006 30.9441 185.91 31.0081H184.998C184.902 31.0721 184.806 31.1521 184.71 31.2481C184.614 31.3441 184.502 31.4241 184.374 31.4881H184.71C184.614 31.5521 184.502 31.6321 184.374 31.7281C184.278 31.8241 184.166 31.9041 184.038 31.9681H183.942C183.654 32.1281 183.366 32.2881 183.078 32.4481C182.79 32.6081 182.486 32.7681 182.166 32.9281H182.022C181.926 32.9601 181.83 32.9921 181.734 33.0241C181.638 33.0561 181.542 33.1041 181.446 33.1681C181.222 33.2641 180.998 33.3601 180.774 33.4561C180.582 33.5201 180.358 33.5841 180.102 33.6481H180.054C178.998 33.9681 177.846 34.2081 176.598 34.3681H176.646C176.134 34.4321 175.59 34.4801 175.014 34.5121C174.47 34.5441 173.926 34.5601 173.382 34.5601C172.806 34.5601 172.246 34.5441 171.702 34.5121C171.158 34.4801 170.614 34.4321 170.07 34.3681C168.854 34.2401 167.686 34.0001 166.566 33.6481H166.614C166.39 33.5841 166.166 33.5201 165.942 33.4561C165.718 33.3601 165.494 33.2641 165.27 33.1681H165.222C165.126 33.1041 165.03 33.0561 164.934 33.0241C164.838 32.9921 164.742 32.9601 164.646 32.9281H164.79C164.47 32.7681 164.166 32.6081 163.878 32.4481C163.59 32.2881 163.302 32.1281 163.014 31.9681H163.11L162.39 31.4881H162.102C161.974 31.4241 161.862 31.3441 161.766 31.2481C161.67 31.1521 161.574 31.0721 161.478 31.0081H162.39L161.814 30.5281H161.238C161.206 30.4641 161.174 30.4161 161.142 30.3841C161.11 30.3521 161.062 30.3201 160.998 30.2881H160.518C160.39 30.1601 160.262 30.0481 160.134 29.9521C160.038 29.8241 159.942 29.6961 159.846 29.5681H159.318L158.742 28.8481H160.518L160.23 28.3681H158.694C158.63 28.2401 158.566 28.1281 158.502 28.0321C158.438 27.9041 158.374 27.7761 158.31 27.6481H158.598C158.502 27.4881 158.422 27.3281 158.358 27.1681H157.926C157.862 27.0401 157.798 26.9281 157.734 26.8321C157.702 26.7041 157.654 26.5761 157.59 26.4481H158.166L157.878 25.7281H158.022C157.99 25.6001 157.958 25.4881 157.926 25.3921C157.894 25.2641 157.862 25.1361 157.83 25.0081H158.358C158.326 24.9441 158.31 24.8641 158.31 24.7681H157.83C157.83 24.7041 157.814 24.6561 157.782 24.6241C157.782 24.5921 157.782 24.5601 157.782 24.5281H157.686C157.654 24.3681 157.622 24.2081 157.59 24.0481C157.558 23.8881 157.526 23.7281 157.494 23.5681H157.734C157.702 23.4081 157.67 23.2481 157.638 23.0881C157.638 22.9281 157.638 22.7681 157.638 22.6081H157.35L157.302 22.1281H157.638V21.6001C157.638 21.5361 157.622 21.4721 157.59 21.4081C157.59 21.3121 157.59 21.2321 157.59 21.1681H156.966C156.934 21.0081 156.918 20.8481 156.918 20.6881C156.918 20.5281 156.918 20.3681 156.918 20.2081H157.254V19.9681H157.11V19.2481H158.07V18.7681H156.39V18.5281H157.302V18.2881H157.254V17.5681H157.014V16.6081H157.302V15.6481H156.966V14.9281H155.19V13.9681H157.254C157.286 13.9041 157.302 13.8241 157.302 13.7281H158.07V13.4881H157.494V13.0081H157.542L157.638 12.0481H157.542C157.542 11.9201 157.542 11.8081 157.542 11.7121C157.574 11.5841 157.606 11.4561 157.638 11.3281H157.494C157.494 11.2001 157.494 11.0881 157.494 10.9921C157.526 10.8641 157.558 10.7361 157.59 10.6081H157.494C157.526 10.4801 157.558 10.3681 157.59 10.2721C157.622 10.1441 157.654 10.0161 157.686 9.88808H156.342C156.342 9.82408 156.342 9.77608 156.342 9.74408C156.374 9.71208 156.39 9.68008 156.39 9.64808H157.83L157.974 9.16808H157.878L157.974 8.92808H158.694C158.726 8.86408 158.758 8.78408 158.79 8.68808C158.822 8.59208 158.854 8.51208 158.886 8.44808H158.406C158.502 8.16008 158.63 7.84008 158.79 7.48808H158.646C158.742 7.32808 158.822 7.16808 158.886 7.00808C158.982 6.81608 159.078 6.65608 159.174 6.52808H159.318L159.462 6.28808H158.694L158.838 6.04808H159.606L159.75 5.80808H159.654L160.23 5.08808H159.894L160.518 4.36808C160.678 4.20808 160.838 4.04808 160.998 3.88808C161.19 3.69608 161.382 3.53608 161.574 3.40808H161.094L161.382 3.16808H160.854C160.918 3.10408 160.966 3.05608 160.998 3.02408C161.062 2.99208 161.126 2.96008 161.19 2.92808H162.39C162.518 2.86408 162.646 2.78408 162.774 2.68808C162.902 2.59208 163.03 2.51208 163.158 2.44808H163.302C163.622 2.28808 163.942 2.12808 164.262 1.96808C164.582 1.77608 164.902 1.61608 165.222 1.48808H165.366C166.006 1.20008 166.71 0.960077 167.478 0.768078H167.718C168.646 0.512077 169.622 0.320077 170.646 0.192077C171.67 0.0640764 172.726 7.62939e-05 173.814 7.62939e-05C176.086 7.62939e-05 178.102 0.256077 179.862 0.768078H179.574C179.926 0.864077 180.278 0.976076 180.63 1.10408C180.982 1.20008 181.318 1.32808 181.638 1.48808H181.446C181.798 1.61608 182.118 1.77608 182.406 1.96808C182.726 2.12808 183.046 2.28808 183.366 2.44808H183.174L183.894 2.92808H182.694C182.758 2.96008 182.806 2.99208 182.838 3.02408C182.902 3.05608 182.966 3.10408 183.03 3.16808H183.558C183.622 3.20008 183.686 3.23208 183.75 3.26408C183.814 3.29608 183.862 3.34408 183.894 3.40808H184.374C184.566 3.53608 184.742 3.69608 184.902 3.88808C185.094 4.04808 185.27 4.20808 185.43 4.36808H185.478C185.606 4.49608 185.718 4.62408 185.814 4.75208C185.91 4.84808 186.006 4.96008 186.102 5.08808H186.438L187.014 5.80808H187.11C187.206 5.90408 187.27 5.98408 187.302 6.04808H186.534L186.678 6.28808H187.494L187.638 6.52808H187.494C187.59 6.65608 187.67 6.81608 187.734 7.00808C187.83 7.16808 187.926 7.32808 188.022 7.48808H188.166L188.598 8.44808H189.078L189.222 8.92808H188.502L188.598 9.16808H188.694L188.838 9.64808H188.694C188.694 9.68008 188.694 9.71208 188.694 9.74408C188.726 9.77608 188.742 9.82408 188.742 9.88808H186.726C186.79 10.0161 186.822 10.1441 186.822 10.2721C186.854 10.3681 186.886 10.4801 186.918 10.6081H189.414C189.446 10.7361 189.462 10.8641 189.462 10.9921C189.494 11.0881 189.51 11.2001 189.51 11.3281H188.838C188.87 11.4561 188.886 11.5841 188.886 11.7121C188.918 11.8081 188.934 11.9201 188.934 12.0481H189.558L189.654 13.0081H189.03V13.1521C189.03 13.1841 189.03 13.2321 189.03 13.2961C189.062 13.3601 189.078 13.4241 189.078 13.4881H190.374V13.7281H189.222C189.254 13.7921 189.27 13.8721 189.27 13.9681H190.134C190.166 14.1281 190.182 14.2881 190.182 14.4481C190.182 14.6081 190.182 14.7681 190.182 14.9281H188.742V15.6481ZM178.23 16.6081H178.662V15.6481H176.262V14.9281H177.702C177.702 14.7681 177.702 14.6081 177.702 14.4481C177.702 14.2881 177.686 14.1281 177.654 13.9681H176.79C176.79 13.9041 176.774 13.8561 176.742 13.8241C176.742 13.7921 176.742 13.7601 176.742 13.7281H177.894V13.4881H176.598C176.598 13.4241 176.582 13.3761 176.55 13.3441C176.55 13.3121 176.55 13.2801 176.55 13.2481V13.0081H177.126C177.126 12.8481 177.11 12.6881 177.078 12.5281C177.078 12.3361 177.062 12.1761 177.03 12.0481H176.406C176.374 11.9201 176.342 11.8081 176.31 11.7121C176.278 11.5841 176.23 11.4561 176.166 11.3281H176.838C176.742 11.0721 176.614 10.8321 176.454 10.6081H173.958C173.798 10.3521 173.542 10.1121 173.19 9.88808H175.206C175.014 9.76008 174.87 9.68008 174.774 9.64808H174.918C174.438 9.45608 173.91 9.36008 173.334 9.36008C172.758 9.36008 172.23 9.45608 171.75 9.64808H170.358C170.23 9.68008 170.07 9.76008 169.878 9.88808H171.222C170.966 10.0481 170.71 10.2881 170.454 10.6081H170.55C170.39 10.8321 170.262 11.0721 170.166 11.3281H170.31C170.278 11.4561 170.246 11.5841 170.214 11.7121C170.182 11.8081 170.134 11.9201 170.07 12.0481H170.166C170.134 12.1761 170.102 12.3361 170.07 12.5281C170.07 12.6881 170.07 12.8481 170.07 13.0081H169.974V13.4881H170.55V13.7281H169.782V13.9681H167.67V14.9281H169.446V15.6481H169.782V16.6081H169.494V17.5681H169.734V18.2881H169.782C169.782 18.3841 169.798 18.4641 169.83 18.5281H168.87V18.7681H170.55V19.2481H169.59V19.9681H169.734V20.2081H169.398C169.398 20.3681 169.398 20.5281 169.398 20.6881C169.43 20.8481 169.446 21.0081 169.446 21.1681H170.118V21.3121C170.118 21.4401 170.118 21.5841 170.118 21.7441C170.118 21.8721 170.134 22.0001 170.166 22.1281H169.83C169.862 22.1921 169.878 22.2721 169.878 22.3681C169.878 22.4641 169.894 22.5441 169.926 22.6081H170.214C170.246 22.7681 170.294 22.9281 170.358 23.0881C170.422 23.2481 170.486 23.4081 170.55 23.5681H170.31C170.502 23.9201 170.758 24.2401 171.078 24.5281H171.174C171.238 24.5601 171.302 24.6081 171.366 24.6721C171.43 24.7041 171.494 24.7361 171.558 24.7681H171.99C172.086 24.8001 172.182 24.8481 172.278 24.9121C172.374 24.9441 172.47 24.9761 172.566 25.0081H171.99C172.374 25.1361 172.822 25.2001 173.334 25.2001C173.846 25.2001 174.294 25.1361 174.678 25.0081H175.494C175.59 24.9761 175.686 24.9441 175.782 24.9121C175.878 24.8481 175.974 24.8001 176.07 24.7681H175.302C175.366 24.7361 175.43 24.7041 175.494 24.6721C175.558 24.6081 175.622 24.5601 175.686 24.5281H175.158C175.446 24.3041 175.702 23.9841 175.926 23.5681H176.358C176.518 23.2161 176.646 22.8961 176.742 22.6081H176.262C176.294 22.5441 176.31 22.4641 176.31 22.3681C176.31 22.2721 176.326 22.1921 176.358 22.1281H176.598C176.63 22.0001 176.646 21.8721 176.646 21.7441C176.646 21.5841 176.646 21.4401 176.646 21.3121V21.1681H176.742C176.742 21.0081 176.742 20.8481 176.742 20.6881C176.742 20.5281 176.758 20.3681 176.79 20.2081H176.742V19.9681H178.134V19.2481H175.83V18.7681H177.174V18.5281H176.79V18.2881H177.798V17.5681H178.23V16.6081ZM237.855 22.6081H227.343V23.0881H235.839V24.0481H232.095V24.2881H228.351V25.0081H225.903V25.7281H224.847V26.4481H219.807V27.4081H227.343V28.3681H223.503V28.8481H226.863V29.3281H228.879V30.0481H229.599V30.7681H230.271V31.2481H230.319V32.2081H231.327V32.4481H230.799V32.6881H229.599V32.9281H226.815L226.671 33.4081H225.183C225.055 33.6321 224.911 33.7921 224.751 33.8881H226.527C226.367 34.0161 226.143 34.0801 225.855 34.0801H217.167C216.879 34.0801 216.655 34.0161 216.495 33.8881H214.671C214.511 33.7921 214.367 33.6321 214.239 33.4081H215.679C215.583 33.2481 215.535 33.0881 215.535 32.9281H218.319V32.6881H219.519V32.4481H220.047V32.2081H219.039V31.2481H218.991V30.7681H218.319V30.0481H217.599V29.3281H215.583V28.8481H212.223V28.3681H216.063V27.4081H199.071V28.3681H205.935V28.8481H204.927V30.0481H205.119V30.7681H204.207V31.2481H203.871V32.2081H204.015V32.4481H207.567V32.6881H204.591V32.9281H206.319C206.319 33.0881 206.271 33.2481 206.175 33.4081H203.535C203.439 33.6321 203.279 33.7921 203.055 33.8881H202.767C202.607 34.0161 202.367 34.0801 202.047 34.0801H193.359C193.071 34.0801 192.847 34.0161 192.687 33.8881H193.023C192.927 33.8241 192.831 33.7601 192.735 33.6961C192.671 33.6001 192.607 33.5041 192.543 33.4081H195.231C195.135 33.2481 195.087 33.0881 195.087 32.9281H193.311V32.6881H196.287V32.4481H192.735V32.2081H192.591V31.2481H192.927V30.7681H193.839V30.0481H193.647V28.8481H194.655V28.3681H187.791V27.4081H198.159V26.4481H188.703V25.7281H188.463V25.0081H192.399V24.2881H193.791V24.0481H190.719V23.0881H197.439V22.6081H202.143L201.999 22.3681H193.455V22.1281H195.039V21.8881H193.839V20.9281H193.887V20.4481H194.991V19.7281H194.751V18.7681H193.455V18.5281H189.135V18.0481H192.879V17.8081H192.735V17.3281H194.847V16.8481H195.999V16.1281H188.415V15.1681H194.463V14.6881H189.087V13.9681H194.655V13.4881H193.983V13.0081H192.159V12.7681H193.071V12.0481H198.591V11.3281H197.775V10.8481H193.215V10.6081H192.975V9.88808H195.231V8.92808H190.239V8.44808H191.967V8.20808H192.447V7.72808H191.343V7.00808H195.663V6.28808H193.455V5.32808H197.103V5.08808H195.951V4.12808H200.223V3.40808H190.191V2.68808H200.847V1.96808H196.143V1.48808H192.543C192.575 1.32808 192.623 1.20008 192.687 1.10408C192.783 0.976076 192.879 0.864077 192.975 0.768078H193.215C193.407 0.576077 193.679 0.480076 194.031 0.480076H201.615C202.063 0.480076 202.431 0.576077 202.719 0.768078H202.479C202.671 0.864077 202.831 0.976076 202.959 1.10408C203.087 1.23208 203.183 1.36008 203.247 1.48808H206.895L207.087 1.77608L207.183 1.96808H211.935L212.367 2.68808H201.711L202.143 3.40808H212.127L212.559 4.12808H208.335L208.911 5.08808H210.063L210.207 5.32808H206.559L207.135 6.28808H209.295L209.727 7.00808H205.455L205.887 7.72808H206.991L207.279 8.20808H206.799L206.943 8.44808H205.215L205.503 8.92808H210.495L211.071 9.88808H208.815L209.247 10.6081H209.487L209.631 10.8481H213.183L213.327 10.6081H212.031L212.463 9.88808H214.047L214.623 8.92808H213.759L214.047 8.44808H210.159L210.303 8.20808H215.151L215.439 7.72808H215.055L215.487 7.00808H218.367L218.799 6.28808H218.943L219.519 5.32808H217.311L217.455 5.08808H222.495L223.071 4.12808H222.783L223.215 3.40808H215.823L216.255 2.68808H223.359L223.791 1.96808H218.559L218.655 1.77608C218.719 1.64808 218.783 1.55208 218.847 1.48808H218.943C219.039 1.36008 219.151 1.23208 219.279 1.10408C219.407 0.976076 219.551 0.864077 219.711 0.768078H219.615C219.903 0.576077 220.271 0.480076 220.719 0.480076H228.303C228.623 0.480076 228.895 0.576077 229.119 0.768078H229.263C229.359 0.864077 229.439 0.976076 229.503 1.10408C229.599 1.20008 229.663 1.32808 229.695 1.48808H229.599V1.96808H234.879V2.68808H227.775V3.40808H235.167V4.12808H235.455V5.08808H230.415V5.32808H232.623V6.28808H232.479V7.00808H229.599V7.72808H229.983V8.20808H225.135V8.44808H229.023V8.92808H229.887V9.88808H228.351V10.6081H229.599V10.8481H231.855V11.3281H226.911V12.0481H230.463V12.7681H229.599V13.0081H229.791V13.4881H230.463V13.9681H224.895V14.6881H230.271V15.1681H224.223V16.1281H231.807V16.8481H230.655V17.3281H228.543V17.8081H228.687V18.0481H224.943V18.5281H229.263V18.7681H230.559V19.7281H229.455V20.4481H228.639V20.9281H229.599V21.8881H230.031V22.1281H232.095V22.3681H237.855V22.6081ZM215.391 10.8481H214.191L214.479 11.3281H215.103L215.391 10.8481ZM209.727 12.7681L209.871 13.0081H211.743L211.887 13.2961L212.079 13.0081H211.887L212.031 12.7681H212.847L213.279 12.0481H210.255L210.687 12.7681H209.727ZM216.831 20.4481H218.175V19.7281H217.263L216.831 20.4481ZM205.119 21.8881H206.319V22.1281H204.735V22.3681H207.999L207.855 22.1281H207.087L206.895 21.8881H206.463L205.887 20.9281H205.983L205.695 20.4481H205.167V20.9281H205.119V21.8881ZM226.575 22.6081V22.3681H220.815V22.1281H218.751V21.8881H218.319V20.9281H217.551L216.927 21.8881H217.407L217.263 22.1281H218.031L217.887 22.3681H213.951V22.6081H208.719V23.0881H201.999V24.0481H205.071V24.2881H203.679V25.0081H199.743V25.7281H199.983V26.4481H213.567V25.7281H214.623V25.0081H210.591C210.495 25.1361 210.399 25.2641 210.303 25.3921C210.207 25.5201 210.079 25.6321 209.919 25.7281H209.775C209.487 25.9201 209.167 26.0161 208.815 26.0161H205.455C205.071 26.0161 204.735 25.9201 204.447 25.7281H204.591C204.463 25.6321 204.335 25.5201 204.207 25.3921C204.111 25.2641 204.015 25.1361 203.919 25.0081H208.863L208.719 24.8161L208.383 24.2881H206.655L206.511 24.0481H209.871L209.247 23.0881H214.863L214.575 22.6081H226.575ZM224.559 24.0481V23.0881H218.271L217.695 24.0481H214.383L214.239 24.2881H215.967L215.631 24.8161L215.487 25.0081H217.071V24.2881H220.815V24.0481H224.559ZM262.068 30.0481H268.164C267.844 30.4321 267.508 30.7521 267.156 31.0081H260.052L259.092 31.7281H260.82C260.692 31.8241 260.564 31.9201 260.436 32.0161C260.308 32.0801 260.18 32.1441 260.052 32.2081H259.572C259.316 32.3361 259.06 32.4641 258.804 32.5921C258.548 32.7201 258.276 32.8321 257.988 32.9281H266.292C265.908 33.0561 265.508 33.1841 265.092 33.3121C264.676 33.4401 264.244 33.5521 263.796 33.6481H254.484C254.26 33.6801 254.02 33.7281 253.764 33.7921C253.54 33.8241 253.3 33.8561 253.044 33.8881H248.676C248.196 33.9521 247.7 34.0001 247.188 34.0321C246.676 34.0641 246.148 34.0801 245.604 34.0801H230.58C230.292 34.0801 230.068 34.0161 229.908 33.8881H234.276C234.212 33.8561 234.116 33.7761 233.988 33.6481H243.252C243.188 33.5521 243.124 33.4401 243.06 33.3121C242.996 33.1841 242.964 33.0561 242.964 32.9281H234.66V32.2081H235.14V31.7281H233.364V31.0081H240.516V30.0481H234.42V29.5681H234.804V29.3281H235.428V29.0881H233.94V28.8481H234.516V27.8881H234.132V26.9281H234.9V26.4481H236.388V25.4881H235.908V25.2481H237.06V24.7681H237.108V24.5281H234.276V24.2881H234.996V23.8081H234.756V23.0881H233.748V22.6081H233.844V22.1281H233.652V21.8881H234.564V21.6481H234.996V21.4081H234.66V21.1681H234.804V20.4481H235.476V19.4881H234.756V19.0081H233.556V18.7681H235.524V18.0481H234.9V17.0881H235.812V16.1281H236.196V15.1681H232.5V14.9281H236.1V13.0081H236.388V12.7681H235.14V12.2881H235.236V12.0481H234.9V11.5681H234.852V11.3281H234.9V11.0881H233.124V10.3681H233.652V10.1281H236.34V9.40808H231.012V9.16808H236.436V8.92808H233.412V7.96808H230.244V7.72808H234.9V6.76808H235.428V6.04808H234.9V4.60808H235.044V4.36808H234.804V4.12808H234.996V3.16808H234.18V2.92808H235.14V1.96808H234.804V1.48808H234.948C234.948 1.36008 235.012 1.20008 235.14 1.00808H235.188C235.444 0.656076 235.796 0.480076 236.244 0.480076H261.108C261.556 0.480076 261.908 0.656076 262.164 1.00808H262.116C262.244 1.20008 262.308 1.36008 262.308 1.48808H262.212C262.212 1.52008 262.212 1.56808 262.212 1.63208C262.244 1.66408 262.26 1.71208 262.26 1.77608V1.96808H262.596V2.92808H261.636V3.16808H262.452V4.12808H262.26V4.36808H262.5V4.60808H262.356V6.04808H262.884V6.76808H262.356V7.72808H257.7V7.96808H260.868V8.92808H263.892V9.16808H258.468C258.436 9.23208 258.42 9.31208 258.42 9.40808H263.748C263.652 9.72808 263.46 9.96808 263.172 10.1281H260.484C260.324 10.2561 260.1 10.3201 259.812 10.3201H245.652V10.3681H245.124V11.0881H246.9V11.3281H246.852V11.5681H246.9V12.0481H247.236V12.2881H247.14V12.6241H251.46C252.388 12.6241 253.284 12.6721 254.148 12.7681H255.396C255.652 12.8001 255.908 12.8321 256.164 12.8641C256.452 12.8961 256.724 12.9441 256.98 13.0081H256.692C257.268 13.1361 257.828 13.2801 258.372 13.4401C258.916 13.5681 259.428 13.7441 259.908 13.9681H259.86C260.212 14.0961 260.532 14.2401 260.82 14.4001C261.14 14.5601 261.428 14.7361 261.684 14.9281H258.132L258.516 15.1681H262.164C262.548 15.4241 262.932 15.7441 263.316 16.1281H262.98C263.14 16.2561 263.3 16.4161 263.46 16.6081C263.62 16.7681 263.764 16.9281 263.892 17.0881H262.932C263.188 17.4081 263.412 17.7281 263.604 18.0481H264.228L264.612 18.7681H262.644C262.644 18.8001 262.676 18.8801 262.74 19.0081H263.988C264.02 19.0721 264.052 19.1521 264.084 19.2481C264.116 19.3441 264.148 19.4241 264.18 19.4881H264.852C264.916 19.6161 264.98 19.7761 265.044 19.9681C265.108 20.1281 265.156 20.2881 265.188 20.4481H264.516C264.58 20.5761 264.612 20.7041 264.612 20.8321C264.644 20.9281 264.676 21.0401 264.708 21.1681H265.044C265.076 21.2321 265.092 21.3121 265.092 21.4081H264.948C264.948 21.4401 264.948 21.4721 264.948 21.5041C264.98 21.5361 264.996 21.5841 264.996 21.6481H264.852V21.8881H265.188V22.1281H266.244V22.6081H265.668V23.0881H264.996V23.8081H264.948L264.9 24.2881H264.324V24.5281H266.772V24.7681H264.612L264.564 25.2481H266.292C266.292 25.2801 266.276 25.3121 266.244 25.3441C266.244 25.3761 266.244 25.4241 266.244 25.4881H266.196C266.164 25.6481 266.132 25.8081 266.1 25.9681C266.068 26.1281 266.02 26.2881 265.956 26.4481H264.516L264.372 26.9281H263.604C263.54 27.0881 263.476 27.2481 263.412 27.4081C263.348 27.5681 263.268 27.7281 263.172 27.8881H263.604C263.476 28.2081 263.3 28.5281 263.076 28.8481H262.452L262.308 29.0881H263.844C263.812 29.1201 263.78 29.1521 263.748 29.1841C263.716 29.2161 263.684 29.2641 263.652 29.3281H262.98L262.836 29.5681H262.452C262.324 29.7601 262.196 29.9201 262.068 30.0481ZM247.908 25.2481V25.4881H248.388V25.8241H251.748C252.132 25.8241 252.516 25.7121 252.9 25.4881H252.948C253.012 25.4561 253.108 25.3761 253.236 25.2481H251.508C251.636 25.1201 251.748 24.9601 251.844 24.7681H254.004C254.068 24.6401 254.1 24.5601 254.1 24.5281H251.652C251.652 24.4961 251.684 24.4161 251.748 24.2881H252.276C252.34 24.2241 252.372 24.1441 252.372 24.0481C252.372 23.9521 252.388 23.8721 252.42 23.8081H252.468C252.5 23.7121 252.516 23.6161 252.516 23.5201C252.516 23.4241 252.516 23.3281 252.516 23.2321V23.0881H253.188C253.188 22.9601 253.156 22.8001 253.092 22.6081H253.716C253.716 22.4161 253.668 22.2561 253.572 22.1281H252.564L252.42 21.8881H252.132L251.988 21.6481H252.18C252.084 21.5521 252.02 21.4721 251.988 21.4081H252.132C252.1 21.3441 252.068 21.2961 252.036 21.2641C252.004 21.2321 251.956 21.2001 251.892 21.1681H251.508C251.156 20.8161 250.708 20.6401 250.164 20.6401H246.804V21.1681H246.66V21.4081H246.996V21.6481H246.564V21.8881H245.652V22.1281H245.844V22.6081H245.748V23.0881H246.756V23.8081H246.996V24.2881H246.276V24.5281H249.108V24.7681H249.06V25.2481H247.908ZM301.71 14.4481H300.03V15.4081H300.51V15.8881H297.486V16.1281H297.966V16.8481H298.686V17.0881H298.206V17.5681H300.414V18.0481H300.75V18.7681H300.558V19.4881H300.99V20.4481H299.742V21.1681H303.87V21.8881H301.806V22.6081H300.03V23.5681H300.606V24.0481H302.718V24.2881H300.126V24.5281H298.014V25.2481H295.95V26.2081H303.582V26.9281H300.702V27.8881H301.086V28.3681H300.174V28.6081H300.702V29.0881H300.798V29.3281H300.99V29.5681H300.126V30.0481H300.798V30.5281H300.75V31.4881H300.078V31.7281H300.75V32.4481H298.83V32.9281H300.798C300.734 33.3761 300.542 33.6961 300.222 33.8881H299.982C299.822 34.0161 299.582 34.0801 299.262 34.0801H289.854C289.566 34.0801 289.342 34.0161 289.182 33.8881H289.422C289.102 33.6961 288.91 33.3761 288.846 32.9281H286.83V32.4481H288.75V31.7281H288.078V31.4881H288.75V30.5281H288.798V30.0481H288.126V29.5681H288.99V29.3281H288.798V29.0881H288.702V28.6081H288.174V28.3681H289.086V27.8881H288.702V26.9281H291.582V26.2081H283.95V25.2481H286.014V24.5281H288.126V24.2881H290.718V24.0481H288.606V23.5681H288.03V22.6081H289.806V21.8881H291.87V21.1681H287.214L286.686 21.8881H286.83L286.302 22.6081H284.814L284.094 23.5681H285.198L284.862 24.0481H287.502L287.31 24.2881H279.774L279.582 24.5281H278.67L278.142 25.2481H282.222L281.502 26.2081H283.182L282.654 26.9281H283.326L282.606 27.8881H282.126L281.79 28.3681H282.078L281.934 28.6081H281.262L280.878 29.0881H282.27L282.126 29.3281H281.214L280.638 30.0481H280.878L280.494 30.5281H280.062L279.342 31.4881H279.918L279.726 31.7281H279.822L279.294 32.4481H279.774L279.39 32.9281H278.766L278.718 32.9761C278.59 33.1681 278.446 33.3441 278.286 33.5041C278.158 33.6641 277.982 33.7921 277.758 33.8881H277.614C277.486 33.9201 277.342 33.9681 277.182 34.0321C277.022 34.0641 276.83 34.0801 276.606 34.0801H268.302C268.014 34.0801 267.79 34.0161 267.63 33.8881H267.774C267.422 33.6961 267.214 33.3761 267.15 32.9281H267.822V32.4481H267.342V31.7281H267.246V31.4881H266.67V30.5281H267.15V30.0481H266.958V29.3281H267.87V29.0881H266.478V28.6081H267.15V28.3681H266.862V27.8881H267.342V26.9281H266.67V26.2081H264.99V25.2481H260.91V24.5281H261.822V24.2881H269.406V24.0481H266.718V23.5681H265.662V22.6081H267.15V21.8881H267.006V21.1681H270.51V20.4481H267.438V19.4881H266.958V18.7681H267.15V18.0481H266.814V17.5681H264.606V17.0881H265.086V16.8481H264.366V16.1281H268.446V15.8881H266.43V15.4081H267.246V14.4481H267.15V14.2081H269.694V13.7281H265.902V13.0081H274.494V12.2881H271.758V12.0481H268.014V11.3281H273.774V10.8481H264.702V10.3681H267.342V9.88808H267.438V9.40808H267.15V8.68808H266.862V7.96808H267.198V7.24808H266.862V6.76808H267.15V5.80808H267.054V5.32808H267.342V4.60808H266.526V4.12808H266.67V3.16808H267.15V2.92808H266.862V2.44808H267.006V1.72808H267.678C267.742 1.31208 267.902 0.992077 268.158 0.768078H267.966C268.222 0.576077 268.494 0.480076 268.782 0.480076H278.19C278.51 0.480076 278.782 0.576077 279.006 0.768078H279.198C279.518 1.02408 279.678 1.34408 279.678 1.72808H279.006V2.44808H278.862V2.92808H279.15V3.16808H278.67V4.12808H278.526V4.60808H279.342V5.32808H279.054V5.80808H279.15V6.76808H278.862V7.24808H279.198V7.96808H278.862V8.68808H279.15V9.40808H279.438V9.88808H279.342V10.3681H276.702V10.8481H285.342L285.678 10.3681H282.894L283.23 9.88808H282.798L283.134 9.40808H283.902L284.382 8.68808H283.902L284.43 7.96808H285.006L285.486 7.24808H285.198L285.534 6.76808H285.726L286.206 6.04808H286.158L286.302 5.80808H286.206L286.542 5.32808H285.822L286.302 4.60808H287.694L288.03 4.12808H287.262L287.934 3.16808H287.982L288.174 2.92808H287.31L287.646 2.44808H288.558L289.134 1.58408C289.262 1.42408 289.39 1.28008 289.518 1.15208C289.646 0.992076 289.79 0.864077 289.95 0.768078H289.134C289.486 0.576077 289.886 0.480076 290.334 0.480076H298.638C298.958 0.480076 299.23 0.576077 299.454 0.768078H300.222C300.542 1.02408 300.702 1.34408 300.702 1.72808V2.44808H299.79V2.92808H300.654V3.16808H300.558V4.12808H301.326V4.60808H299.934V5.32808H300.654V5.80808H300.75V6.04808H300.798V6.76808H300.606V7.24808H300.894V7.96808H300.318V8.68808H300.798V9.40808H300.03V9.88808H300.462V10.3681H303.198V10.8481H304.398V11.3281H297.87V12.0481H302.766V12.2881H303.15V13.0081H307.902V13.7281H302.814V14.2081H301.71V14.4481ZM286.542 10.8481H285.774V11.3281H286.206L286.542 10.8481ZM277.902 13.0081V13.7281H281.694V14.2081H282.654L282.99 13.7281H288.078L288.558 13.0081H277.902ZM279.678 14.4481H281.406L281.55 14.2081H279.15V14.4481H279.246V15.1201L279.678 14.4481ZM279.198 15.8881L279.534 15.4081H278.43V15.8881H279.198ZM288.99 20.4481V19.4881H288.894L288.174 20.4481H288.99Z" fill="white"/>
</svg>
