<svg width="309" height="51" viewBox="0 0 309 51" fill="none" xmlns="http://www.w3.org/2000/svg">
<path d="M18.528 50.208C15.936 50.208 13.504 49.728 11.232 48.768C8.99198 47.776 7.02398 46.416 5.32798 44.688C3.66398 42.928 2.35198 40.88 1.39198 38.544C0.463979 36.208 -2.13385e-05 33.68 -2.13385e-05 30.96C-2.13385e-05 28.272 0.463979 25.776 1.39198 23.472C2.35198 21.136 3.66398 19.104 5.32798 17.376C7.02398 15.616 8.99198 14.24 11.232 13.248C13.472 12.256 15.904 11.76 18.528 11.76C20.992 11.76 23.104 12.08 24.864 12.72C26.656 13.36 28.448 14.416 30.24 15.888C30.496 16.08 30.688 16.288 30.816 16.512C30.976 16.704 31.072 16.912 31.104 17.136C31.168 17.328 31.2 17.568 31.2 17.856C31.2 18.464 30.976 18.976 30.528 19.392C30.112 19.776 29.6 20 28.992 20.064C28.384 20.096 27.792 19.888 27.216 19.44C26.032 18.416 24.8 17.632 23.52 17.088C22.272 16.544 20.608 16.272 18.528 16.272C16.64 16.272 14.864 16.656 13.2 17.424C11.536 18.192 10.064 19.248 8.78398 20.592C7.53598 21.936 6.55998 23.504 5.85598 25.296C5.15198 27.056 4.79998 28.944 4.79998 30.96C4.79998 33.008 5.15198 34.928 5.85598 36.72C6.55998 38.48 7.53598 40.032 8.78398 41.376C10.064 42.72 11.536 43.776 13.2 44.544C14.864 45.28 16.64 45.648 18.528 45.648C20.16 45.648 21.696 45.376 23.136 44.832C24.608 44.256 26.016 43.472 27.36 42.48C27.936 42.064 28.496 41.888 29.04 41.952C29.616 41.984 30.096 42.208 30.48 42.624C30.864 43.008 31.056 43.552 31.056 44.256C31.056 44.576 30.992 44.896 30.864 45.216C30.736 45.504 30.544 45.776 30.288 46.032C28.56 47.408 26.704 48.448 24.72 49.152C22.768 49.856 20.704 50.208 18.528 50.208ZM41.5365 49.728C40.8325 49.728 40.2405 49.488 39.7605 49.008C39.2805 48.528 39.0405 47.936 39.0405 47.232V14.736C39.0405 14 39.2805 13.408 39.7605 12.96C40.2405 12.48 40.8325 12.24 41.5365 12.24H63.2325C63.9685 12.24 64.5605 12.464 65.0085 12.912C65.4565 13.328 65.6805 13.888 65.6805 14.592C65.6805 15.264 65.4565 15.808 65.0085 16.224C64.5605 16.64 63.9685 16.848 63.2325 16.848H44.0325V28.512H57.8085C58.5445 28.512 59.1365 28.736 59.5845 29.184C60.0325 29.6 60.2565 30.144 60.2565 30.816C60.2565 31.488 60.0325 32.048 59.5845 32.496C59.1365 32.912 58.5445 33.12 57.8085 33.12H44.0325V45.12H63.2325C63.9685 45.12 64.5605 45.328 65.0085 45.744C65.4565 46.16 65.6805 46.704 65.6805 47.376C65.6805 48.08 65.4565 48.656 65.0085 49.104C64.5605 49.52 63.9685 49.728 63.2325 49.728H41.5365ZM75.1459 49.728C74.4419 49.728 73.8499 49.488 73.3699 49.008C72.8899 48.528 72.6499 47.936 72.6499 47.232V14.736C72.6499 14 72.8899 13.408 73.3699 12.96C73.8499 12.48 74.4419 12.24 75.1459 12.24C76.1059 12.24 76.8419 12.688 77.3539 13.584L92.3779 43.68H90.8419L105.482 13.584C105.994 12.688 106.73 12.24 107.69 12.24C108.394 12.24 108.986 12.48 109.466 12.96C109.946 13.408 110.186 14 110.186 14.736V47.232C110.186 47.936 109.93 48.528 109.418 49.008C108.938 49.488 108.362 49.728 107.69 49.728C106.986 49.728 106.394 49.488 105.914 49.008C105.434 48.528 105.194 47.936 105.194 47.232V21.648L106.154 21.408L93.5779 47.04C93.0339 47.872 92.3139 48.288 91.4179 48.288C90.3619 48.288 89.5939 47.792 89.1139 46.8L76.6819 21.888L77.6419 21.648V47.232C77.6419 47.936 77.4019 48.528 76.9219 49.008C76.4419 49.488 75.8499 49.728 75.1459 49.728ZM122.302 49.728C121.598 49.728 121.006 49.488 120.526 49.008C120.046 48.528 119.806 47.936 119.806 47.232V14.736C119.806 14 120.046 13.408 120.526 12.96C121.006 12.48 121.598 12.24 122.302 12.24H143.998C144.734 12.24 145.326 12.464 145.774 12.912C146.222 13.328 146.446 13.888 146.446 14.592C146.446 15.264 146.222 15.808 145.774 16.224C145.326 16.64 144.734 16.848 143.998 16.848H124.798V28.512H138.574C139.31 28.512 139.902 28.736 140.35 29.184C140.798 29.6 141.022 30.144 141.022 30.816C141.022 31.488 140.798 32.048 140.35 32.496C139.902 32.912 139.31 33.12 138.574 33.12H124.798V45.12H143.998C144.734 45.12 145.326 45.328 145.774 45.744C146.222 46.16 146.446 46.704 146.446 47.376C146.446 48.08 146.222 48.656 145.774 49.104C145.326 49.52 144.734 49.728 143.998 49.728H122.302ZM156.007 49.728C155.303 49.728 154.695 49.488 154.183 49.008C153.671 48.528 153.415 47.936 153.415 47.232V14.736C153.415 14 153.671 13.408 154.183 12.96C154.695 12.48 155.303 12.24 156.007 12.24C156.743 12.24 157.319 12.48 157.735 12.96C158.183 13.408 158.407 14 158.407 14.736V41.952L181.447 13.152C181.959 12.544 182.599 12.24 183.367 12.24C184.103 12.24 184.695 12.48 185.143 12.96C185.623 13.408 185.863 14 185.863 14.736V47.232C185.863 47.936 185.623 48.528 185.143 49.008C184.695 49.488 184.103 49.728 183.367 49.728C182.663 49.728 182.071 49.488 181.591 49.008C181.111 48.528 180.871 47.936 180.871 47.232V20.064L157.927 48.864C157.703 49.12 157.415 49.328 157.063 49.488C156.711 49.648 156.359 49.728 156.007 49.728ZM169.687 8.78403C168.055 8.78403 166.583 8.51202 165.271 7.96802C163.959 7.39202 162.919 6.62402 162.151 5.66403C161.383 4.67202 160.999 3.56802 160.999 2.35203C160.999 1.68003 161.207 1.12003 161.623 0.672024C162.039 0.224026 162.551 2.67029e-05 163.159 2.67029e-05C163.799 2.67029e-05 164.311 0.224026 164.695 0.672024C165.111 1.12003 165.319 1.68003 165.319 2.35203C165.319 3.15202 165.735 3.84002 166.567 4.41602C167.399 4.96002 168.439 5.23203 169.687 5.23203C170.935 5.23203 171.975 4.96002 172.807 4.41602C173.639 3.84002 174.055 3.15202 174.055 2.35203C174.055 1.68003 174.263 1.12003 174.679 0.672024C175.095 0.224026 175.607 2.67029e-05 176.215 2.67029e-05C176.855 2.67029e-05 177.367 0.224026 177.751 0.672024C178.167 1.12003 178.375 1.68003 178.375 2.35203C178.375 3.56802 177.991 4.67202 177.223 5.66403C176.455 6.62402 175.415 7.39202 174.103 7.96802C172.823 8.51202 171.351 8.78403 169.687 8.78403ZM197.958 49.728C197.254 49.728 196.662 49.488 196.182 49.008C195.702 48.528 195.462 47.936 195.462 47.232V14.736C195.462 14 195.702 13.408 196.182 12.96C196.662 12.48 197.254 12.24 197.958 12.24C198.694 12.24 199.286 12.48 199.734 12.96C200.214 13.408 200.454 14 200.454 14.736V28.512H222.726V14.736C222.726 14 222.966 13.408 223.446 12.96C223.926 12.48 224.518 12.24 225.222 12.24C225.958 12.24 226.55 12.48 226.998 12.96C227.446 13.408 227.67 14 227.67 14.736V47.232C227.67 47.936 227.446 48.528 226.998 49.008C226.55 49.488 225.958 49.728 225.222 49.728C224.518 49.728 223.926 49.488 223.446 49.008C222.966 48.528 222.726 47.936 222.726 47.232V32.928H200.454V47.232C200.454 47.936 200.214 48.528 199.734 49.008C199.286 49.488 198.694 49.728 197.958 49.728ZM254.603 50.208C251.787 50.208 249.211 49.744 246.875 48.816C244.539 47.856 242.523 46.528 240.827 44.832C239.163 43.104 237.867 41.072 236.939 38.736C236.011 36.368 235.547 33.776 235.547 30.96C235.547 28.144 236.011 25.568 236.939 23.232C237.867 20.896 239.163 18.88 240.827 17.184C242.523 15.456 244.539 14.128 246.875 13.2C249.211 12.24 251.787 11.76 254.603 11.76C257.419 11.76 259.979 12.24 262.283 13.2C264.619 14.128 266.635 15.456 268.331 17.184C270.027 18.88 271.339 20.896 272.267 23.232C273.195 25.568 273.659 28.144 273.659 30.96C273.659 33.776 273.195 36.368 272.267 38.736C271.339 41.072 270.027 43.104 268.331 44.832C266.635 46.528 264.619 47.856 262.283 48.816C259.979 49.744 257.419 50.208 254.603 50.208ZM254.603 45.696C256.683 45.696 258.587 45.328 260.315 44.592C262.075 43.824 263.595 42.784 264.875 41.472C266.155 40.128 267.131 38.56 267.803 36.768C268.507 34.976 268.859 33.04 268.859 30.96C268.859 28.88 268.507 26.944 267.803 25.152C267.131 23.36 266.155 21.808 264.875 20.496C263.595 19.152 262.075 18.112 260.315 17.376C258.587 16.64 256.683 16.272 254.603 16.272C252.523 16.272 250.603 16.64 248.843 17.376C247.115 18.112 245.611 19.152 244.331 20.496C243.083 21.808 242.107 23.36 241.403 25.152C240.699 26.944 240.347 28.88 240.347 30.96C240.347 33.04 240.699 34.976 241.403 36.768C242.107 38.56 243.083 40.128 244.331 41.472C245.611 42.784 247.115 43.824 248.843 44.592C250.603 45.328 252.523 45.696 254.603 45.696ZM283.974 49.728C283.27 49.728 282.678 49.488 282.198 49.008C281.718 48.528 281.478 47.936 281.478 47.232V14.736C281.478 14 281.718 13.408 282.198 12.96C282.678 12.48 283.27 12.24 283.974 12.24H305.67C306.406 12.24 306.998 12.464 307.446 12.912C307.894 13.328 308.118 13.888 308.118 14.592C308.118 15.264 307.894 15.808 307.446 16.224C306.998 16.64 306.406 16.848 305.67 16.848H286.47V28.512H300.246C300.982 28.512 301.574 28.736 302.022 29.184C302.47 29.6 302.694 30.144 302.694 30.816C302.694 31.488 302.47 32.048 302.022 32.496C301.574 32.912 300.982 33.12 300.246 33.12H286.47V45.12H305.67C306.406 45.12 306.998 45.328 307.446 45.744C307.894 46.16 308.118 46.704 308.118 47.376C308.118 48.08 307.894 48.656 307.446 49.104C306.998 49.52 306.406 49.728 305.67 49.728H283.974Z" fill="white"/>
</svg>
