<svg width="226" height="41" viewBox="0 0 226 41" fill="none" xmlns="http://www.w3.org/2000/svg">
<path d="M15.024 34.8H10.704V4.32005H1.95652e-05V0.528047H25.68V4.32005H15.024V34.8ZM64.6144 17.616C64.6144 20.272 64.2784 22.688 63.6064 24.864C62.9344 27.008 61.9264 28.864 60.5824 30.432C59.2704 32 57.6224 33.2 55.6384 34.032C53.6864 34.864 51.4144 35.28 48.8224 35.28C46.1344 35.28 43.7984 34.864 41.8144 34.032C39.8304 33.168 38.1824 31.968 36.8704 30.432C35.5584 28.864 34.5824 26.992 33.9424 24.816C33.3024 22.64 32.9824 20.224 32.9824 17.568C32.9824 14.048 33.5584 10.976 34.7104 8.35205C35.8624 5.72805 37.6064 3.68005 39.9424 2.20805C42.3104 0.736048 45.2864 4.76837e-05 48.8704 4.76837e-05C52.2944 4.76837e-05 55.1744 0.736048 57.5104 2.20805C59.8464 3.64805 61.6064 5.69605 62.7904 8.35205C64.0064 10.976 64.6144 14.064 64.6144 17.616ZM37.5424 17.616C37.5424 20.496 37.9424 22.976 38.7424 25.056C39.5424 27.136 40.7744 28.736 42.4384 29.856C44.1344 30.976 46.2624 31.536 48.8224 31.536C51.4144 31.536 53.5264 30.976 55.1584 29.856C56.8224 28.736 58.0544 27.136 58.8544 25.056C59.6544 22.976 60.0544 20.496 60.0544 17.616C60.0544 13.296 59.1584 9.92005 57.3664 7.48805C55.5744 5.02405 52.7424 3.79205 48.8704 3.79205C46.2784 3.79205 44.1344 4.35205 42.4384 5.47205C40.7744 6.56005 39.5424 8.14405 38.7424 10.224C37.9424 12.272 37.5424 14.736 37.5424 17.616ZM77.0104 34.8V0.528047H102.738V34.8H98.4664V4.32005H81.3304V34.8H77.0104ZM135.111 34.3313C135.345 34.0344 135.712 33.636 136.212 33.136C136.712 32.6204 137.29 32.0188 137.947 31.3313C138.603 30.6282 139.306 29.8469 140.056 28.9875C140.806 28.1282 141.556 27.1985 142.306 26.1985C143.056 25.1985 143.775 24.136 144.462 23.011C145.165 21.8704 145.783 20.6829 146.314 19.4485C146.845 18.2141 147.267 16.9329 147.579 15.6047C147.908 14.2766 148.072 12.9172 148.072 11.5266C148.072 10.0422 147.892 8.76099 147.533 7.68286C147.189 6.58911 146.712 5.69067 146.103 4.98755C145.493 4.2688 144.775 3.73755 143.947 3.3938C143.134 3.05005 142.251 2.87817 141.298 2.87817C140.111 2.87817 139.033 3.0813 138.064 3.48755C137.111 3.87817 136.275 4.33911 135.556 4.87036C134.853 5.40161 134.275 5.93286 133.822 6.46411C133.384 6.99536 133.087 7.40161 132.931 7.68286L132.603 7.54224L134.197 2.78442C135.025 2.40942 135.798 2.08911 136.517 1.82349C137.251 1.54224 137.986 1.31567 138.72 1.1438C139.47 0.971924 140.236 0.846924 141.017 0.768799C141.814 0.675049 142.689 0.628174 143.642 0.628174C144.283 0.628174 144.962 0.698486 145.681 0.839111C146.4 0.979736 147.111 1.2063 147.814 1.5188C148.517 1.8313 149.181 2.23755 149.806 2.73755C150.447 3.22192 151.009 3.82349 151.493 4.54224C151.993 5.24536 152.384 6.06567 152.665 7.00317C152.962 7.94067 153.111 9.01099 153.111 10.2141C153.111 11.4954 152.915 12.7844 152.525 14.0813C152.134 15.3625 151.618 16.6282 150.978 17.8782C150.337 19.1125 149.603 20.3235 148.775 21.511C147.947 22.6985 147.095 23.8313 146.22 24.9094C145.345 25.9875 144.478 27.0032 143.618 27.9563C142.759 28.8938 141.986 29.7532 141.298 30.5344H150.322C150.9 30.5344 151.462 30.5266 152.009 30.511C152.572 30.4797 153.087 30.4407 153.556 30.3938C154.025 30.3313 154.431 30.2532 154.775 30.1594C155.134 30.0657 155.408 29.9485 155.595 29.8079H155.689V34.8H135.111V34.3313ZM162.528 38.8782C164.778 38.3157 166.84 37.6125 168.715 36.7688C170.606 35.925 172.239 34.9329 173.614 33.7922C174.989 32.636 176.059 31.3235 176.825 29.8547C177.59 28.386 177.973 26.7532 177.973 24.9563C177.973 23.175 177.614 21.6594 176.895 20.4094C176.176 19.1594 175.192 18.136 173.942 17.3391C172.708 16.5422 171.247 15.9563 169.559 15.5813C167.887 15.2063 166.098 15.0032 164.192 14.9719L167.215 1.19067H171.692C173.02 1.19067 174.176 1.19067 175.161 1.19067C176.161 1.17505 177.02 1.16724 177.739 1.16724C178.458 1.15161 179.059 1.13599 179.543 1.12036C180.028 1.10474 180.434 1.0813 180.762 1.05005H180.856V6.13599H180.762C180.434 6.04224 180.028 5.9563 179.543 5.87817C179.059 5.80005 178.458 5.72974 177.739 5.66724C177.02 5.60474 176.161 5.55786 175.161 5.52661C174.176 5.49536 173.02 5.47974 171.692 5.47974H168.223L166.981 10.7532C168.247 10.7844 169.497 10.9094 170.731 11.1282C171.965 11.3313 173.145 11.6516 174.27 12.0891C175.395 12.511 176.434 13.05 177.387 13.7063C178.356 14.3469 179.192 15.1125 179.895 16.0032C180.598 16.8782 181.145 17.886 181.536 19.0266C181.942 20.1516 182.145 21.4094 182.145 22.8C182.145 24.5969 181.872 26.2219 181.325 27.675C180.778 29.1282 180.036 30.4407 179.098 31.6125C178.161 32.7844 177.067 33.8235 175.817 34.7297C174.567 35.636 173.231 36.4329 171.809 37.1204C170.403 37.8079 168.95 38.4016 167.45 38.9016C165.95 39.4016 164.481 39.8235 163.043 40.1672L162.528 38.8782ZM194.539 18.1829C194.539 19.4641 194.703 20.6985 195.031 21.886C195.359 23.0735 195.812 24.1907 196.39 25.2375C196.984 26.2688 197.695 27.2141 198.523 28.0735C199.367 28.9329 200.297 29.6672 201.312 30.2766C202.343 30.886 203.445 31.3625 204.617 31.7063C205.789 32.0344 207.015 32.1985 208.297 32.1985C209.578 32.1985 210.804 32.0344 211.976 31.7063C213.164 31.3625 214.265 30.886 215.281 30.2766C216.312 29.6672 217.242 28.9329 218.07 28.0735C218.898 27.2141 219.609 26.2688 220.203 25.2375C220.797 24.1907 221.258 23.0735 221.586 21.886C221.914 20.6985 222.078 19.4641 222.078 18.1829C222.078 16.261 221.718 14.4563 221 12.7688C220.281 11.0657 219.297 9.5813 218.047 8.31567C216.812 7.03442 215.359 6.02661 213.687 5.29224C212.015 4.54224 210.218 4.16724 208.297 4.16724C206.375 4.16724 204.578 4.54224 202.906 5.29224C201.234 6.02661 199.773 7.03442 198.523 8.31567C197.289 9.5813 196.312 11.0657 195.593 12.7688C194.89 14.4563 194.539 16.261 194.539 18.1829ZM190.883 18.0891C190.883 16.4954 191.086 14.9563 191.492 13.4719C191.914 11.9875 192.5 10.6047 193.25 9.32349C194.015 8.02661 194.929 6.84692 195.992 5.78442C197.054 4.72192 198.226 3.81567 199.508 3.06567C200.804 2.30005 202.195 1.71411 203.679 1.30786C205.164 0.885986 206.703 0.675049 208.297 0.675049C209.89 0.675049 211.429 0.885986 212.914 1.30786C214.398 1.71411 215.789 2.30005 217.086 3.06567C218.383 3.81567 219.562 4.72192 220.625 5.78442C221.687 6.84692 222.593 8.02661 223.343 9.32349C224.109 10.6047 224.695 11.9875 225.101 13.4719C225.523 14.9563 225.734 16.4954 225.734 18.0891C225.734 19.6985 225.523 21.2454 225.101 22.7297C224.695 24.1985 224.109 25.5813 223.343 26.8782C222.593 28.175 221.687 29.3547 220.625 30.4172C219.562 31.4797 218.383 32.3938 217.086 33.1594C215.789 33.9094 214.398 34.4875 212.914 34.8938C211.429 35.3157 209.89 35.5266 208.297 35.5266C206.703 35.5266 205.164 35.3157 203.679 34.8938C202.195 34.4875 200.804 33.9094 199.508 33.1594C198.226 32.3938 197.054 31.4797 195.992 30.4172C194.929 29.3547 194.015 28.175 193.25 26.8782C192.5 25.5813 191.914 24.1985 191.492 22.7297C191.086 21.2454 190.883 19.6985 190.883 18.0891Z" fill="white"/>
</svg>
